<svg width="133" height="44" viewBox="0 0 133 44" fill="none" xmlns="http://www.w3.org/2000/svg">
<rect x="1" y="0.5" width="131" height="43" rx="21.5" stroke="white"/>
<path d="M32.663 24.622L32.429 23.972C32.3857 23.7987 32.325 23.6167 32.247 23.426C32.169 23.2267 32.0867 23.062 32 22.932C31.8353 22.698 31.597 22.516 31.285 22.386C30.9817 22.2473 30.5137 22.1607 29.881 22.126C29.7943 22.126 29.7077 22.1303 29.621 22.139C29.5343 22.139 29.361 22.152 29.101 22.178C28.8497 22.204 28.6677 22.2213 28.555 22.23C28.3123 22.256 28.1303 22.2603 28.009 22.243C28.0263 23.5083 28.035 24.5397 28.035 25.337C28.035 25.519 27.97 25.675 27.84 25.805C27.7187 25.9263 27.567 25.987 27.385 25.987C27.203 25.987 27.047 25.9263 26.917 25.805C26.7957 25.675 26.735 25.519 26.735 25.337C26.735 24.4877 26.722 23.2137 26.696 21.515C26.6787 19.8077 26.67 18.5293 26.67 17.68C26.67 17.5327 26.7177 17.3983 26.813 17.277C26.839 17.1557 26.8997 17.0517 26.995 16.965C27.0903 16.8783 27.203 16.8263 27.333 16.809C27.827 16.731 28.3817 16.6877 28.997 16.679C29.6123 16.6617 30.3273 16.705 31.142 16.809C31.4367 16.8523 31.7097 16.913 31.961 16.991C32.221 17.0603 32.4897 17.1687 32.767 17.316C33.053 17.4547 33.2913 17.6193 33.482 17.81C33.6813 17.992 33.8417 18.226 33.963 18.512C34.0843 18.7893 34.1363 19.1013 34.119 19.448C34.0843 20.3927 33.5383 21.099 32.481 21.567C32.7063 21.7403 32.9013 21.9483 33.066 22.191C33.1873 22.373 33.3043 22.5983 33.417 22.867C33.5297 23.1357 33.6163 23.3783 33.677 23.595C33.7463 23.803 33.8287 24.0717 33.924 24.401C34.028 24.7303 34.1103 24.9947 34.171 25.194C34.223 25.3587 34.2057 25.5233 34.119 25.688C34.0323 25.844 33.9023 25.948 33.729 26C33.5643 26.052 33.3997 26.0347 33.235 25.948C33.079 25.8613 32.975 25.7313 32.923 25.558L32.663 24.622ZM28.152 20.839C28.2127 20.8303 28.2863 20.826 28.373 20.826C28.5117 20.8173 28.6937 20.813 28.919 20.813C29.3523 20.8043 29.6297 20.8043 29.751 20.813H29.881C30.635 20.761 31.2547 20.644 31.74 20.462C32.442 20.2107 32.8017 19.8553 32.819 19.396C32.845 18.7373 32.2167 18.2997 30.934 18.083C30.05 17.9357 29.062 17.9183 27.97 18.031C27.97 18.759 27.9787 19.7037 27.996 20.865L28.152 20.839ZM38.7982 26.065C38.1569 26.0217 37.5979 25.8917 37.1212 25.675C36.6445 25.4583 36.2805 25.1853 36.0292 24.856C35.7779 24.5267 35.5959 24.2233 35.4832 23.946C35.3705 23.6687 35.3012 23.3957 35.2752 23.127C35.2492 22.8497 35.2622 22.4943 35.3142 22.061C35.3749 21.697 35.5005 21.3373 35.6912 20.982C35.8905 20.6267 36.1505 20.3103 36.4712 20.033C36.8005 19.747 37.1949 19.5303 37.6542 19.383C38.1135 19.227 38.6032 19.1793 39.1232 19.24C39.6259 19.3007 40.0549 19.4393 40.4102 19.656C40.7655 19.864 41.0689 20.1327 41.3202 20.462C41.5369 20.7393 41.6669 20.9473 41.7102 21.086C41.7622 21.2247 41.8055 21.3547 41.8402 21.476C41.8835 21.5973 41.9182 21.7013 41.9442 21.788C41.9702 21.8747 41.9919 21.9657 42.0092 22.061C42.0352 22.1477 42.0525 22.2517 42.0612 22.373C42.0699 22.5377 42.0395 22.6893 41.9702 22.828C41.9009 22.9667 41.7969 23.075 41.6582 23.153C41.5455 23.1963 41.4242 23.218 41.2942 23.218L39.0712 23.257C37.5112 23.2657 36.7312 23.283 36.7312 23.309H36.6922C36.8049 23.751 37.0389 24.0977 37.3942 24.349C37.7582 24.6003 38.2522 24.7477 38.8762 24.791C39.2142 24.8083 39.4959 24.791 39.7212 24.739C39.9725 24.6697 40.1545 24.609 40.2672 24.557C40.3799 24.4963 40.5185 24.4183 40.6832 24.323C40.8479 24.2623 41.0125 24.271 41.1772 24.349C41.3419 24.427 41.4545 24.5483 41.5152 24.713C41.5759 24.8777 41.5672 25.038 41.4892 25.194C41.4199 25.35 41.3072 25.4713 41.1512 25.558C41.0125 25.636 40.8695 25.7053 40.7222 25.766C40.5749 25.818 40.3582 25.883 40.0722 25.961C39.7862 26.039 39.3615 26.0737 38.7982 26.065ZM36.7182 22.035C37.2209 22.009 38.5252 21.983 40.6312 21.957C40.5532 21.697 40.4275 21.45 40.2542 21.216C39.9075 20.8173 39.4785 20.5877 38.9672 20.527C38.4299 20.4577 37.9575 20.5747 37.5502 20.878C37.1429 21.1727 36.8655 21.5583 36.7182 22.035ZM46.2442 28.665C45.7416 28.7083 45.2562 28.652 44.7882 28.496C44.3289 28.34 43.9476 28.067 43.6442 27.677C43.5316 27.5297 43.4362 27.3477 43.3582 27.131C43.2889 26.9143 43.2976 26.7237 43.3842 26.559C43.4709 26.403 43.5966 26.299 43.7612 26.247C43.9346 26.195 44.0992 26.2123 44.2552 26.299C44.4199 26.3857 44.5282 26.5113 44.5802 26.676C44.5976 26.7453 44.6192 26.8363 44.6452 26.949C44.6712 27.0703 44.7666 27.1873 44.9312 27.3C45.3212 27.4387 45.7502 27.4993 46.2182 27.482C46.6429 27.4647 46.9679 27.3737 47.1932 27.209C47.4186 27.053 47.5616 26.871 47.6222 26.663C47.7089 26.3683 47.7782 25.9003 47.8302 25.259C47.5009 25.6057 47.0026 25.8137 46.3352 25.883C45.7632 25.909 45.2476 25.831 44.7882 25.649C44.3376 25.4583 43.9779 25.1897 43.7092 24.843C43.4492 24.4963 43.2586 24.1107 43.1372 23.686C43.0159 23.2787 42.9726 22.7673 43.0072 22.152C43.0766 21.1987 43.4492 20.4317 44.1252 19.851C44.8792 19.253 45.7892 19.0407 46.8552 19.214C47.2452 19.344 47.5529 19.5 47.7782 19.682C47.7869 19.3353 47.9516 19.123 48.2722 19.045C48.4802 19.0277 48.6449 19.0753 48.7662 19.188C48.8962 19.3007 48.9742 19.4437 49.0002 19.617C49.0956 20.6743 49.1519 21.9657 49.1692 23.491C49.1779 24.3577 49.1519 25.0813 49.0912 25.662C49.0219 26.5287 48.8182 27.1743 48.4802 27.599C48.1422 28.0323 47.8042 28.3053 47.4662 28.418C47.1282 28.5393 46.7209 28.6217 46.2442 28.665ZM46.2442 24.557C46.5649 24.5657 46.8119 24.5267 46.9852 24.44C47.4879 24.284 47.7782 23.8723 47.8562 23.205C47.8996 22.6937 47.8779 22.204 47.7912 21.736C47.7306 21.4413 47.5529 21.1857 47.2582 20.969C47.0849 20.8303 46.8639 20.7393 46.5952 20.696C45.9019 20.5747 45.3689 20.6787 44.9962 21.008C44.6409 21.294 44.4372 21.7143 44.3852 22.269C44.3419 22.997 44.4849 23.5647 44.8142 23.972C45.1522 24.3707 45.6289 24.5657 46.2442 24.557ZM50.8092 25.376C50.7918 24.726 50.7918 23.7293 50.8092 22.386C50.8352 21.0427 50.8482 20.163 50.8482 19.747C50.8482 19.565 50.9088 19.4133 51.0302 19.292C51.1602 19.162 51.3162 19.097 51.4982 19.097C51.6802 19.097 51.8318 19.162 51.9532 19.292C52.0832 19.4133 52.1482 19.565 52.1482 19.747C52.1482 20.163 52.1352 21.0383 52.1092 22.373C52.0918 23.7077 52.0918 24.7 52.1092 25.35C52.1092 25.532 52.0485 25.688 51.9272 25.818C51.8058 25.948 51.6542 26.013 51.4722 26.013C51.2902 26.013 51.1342 25.9523 51.0042 25.831C50.8742 25.7097 50.8092 25.558 50.8092 25.376ZM52.0182 16.848C52.1655 16.9953 52.2392 17.1773 52.2392 17.394C52.2392 17.6107 52.1655 17.7927 52.0182 17.94C51.8708 18.0873 51.6888 18.161 51.4722 18.161C51.2555 18.161 51.0735 18.0873 50.9262 17.94C50.7788 17.7927 50.7052 17.6107 50.7052 17.394C50.7052 17.1773 50.7788 16.9953 50.9262 16.848C51.0735 16.7007 51.2555 16.627 51.4722 16.627C51.6975 16.6183 51.8795 16.692 52.0182 16.848ZM55.234 26C54.5927 25.8873 54.129 25.6273 53.843 25.22C53.7044 25.038 53.6047 24.7953 53.544 24.492L53.492 24.206C53.4747 24.1193 53.4574 24.05 53.44 23.998C53.388 23.8333 53.4054 23.673 53.492 23.517C53.5787 23.361 53.7087 23.2613 53.882 23.218C54.0554 23.1747 54.22 23.192 54.376 23.27C54.532 23.348 54.636 23.4737 54.688 23.647C54.714 23.7423 54.74 23.8507 54.766 23.972C54.7747 24.0153 54.779 24.0587 54.779 24.102C54.7877 24.1367 54.805 24.2017 54.831 24.297C54.857 24.4097 54.9177 24.505 55.013 24.583C55.117 24.6783 55.273 24.739 55.481 24.765C55.8277 24.8343 56.2004 24.8257 56.599 24.739C56.989 24.6523 57.2924 24.5267 57.509 24.362C57.665 24.2233 57.73 24.0803 57.704 23.933C57.678 23.6903 57.5264 23.5083 57.249 23.387C57.0757 23.309 56.625 23.205 55.897 23.075C55.143 22.9277 54.61 22.737 54.298 22.503C53.726 22.0783 53.5397 21.4457 53.739 20.605C53.8604 20.1197 54.1074 19.7643 54.48 19.539C54.8614 19.305 55.2817 19.175 55.741 19.149C56.131 19.1317 56.5254 19.1793 56.924 19.292C57.3314 19.396 57.678 19.5433 57.964 19.734C58.0594 19.8033 58.159 19.8857 58.263 19.981C58.367 20.0763 58.4667 20.1803 58.562 20.293C58.666 20.4057 58.7267 20.4663 58.744 20.475C58.874 20.605 58.939 20.7567 58.939 20.93C58.939 21.0947 58.874 21.242 58.744 21.372C58.6227 21.4933 58.471 21.554 58.289 21.554C58.1157 21.554 57.964 21.4933 57.834 21.372C57.7474 21.294 57.6607 21.2117 57.574 21.125L57.392 20.904C57.34 20.8607 57.2794 20.8173 57.21 20.774C57.0454 20.67 56.833 20.5833 56.573 20.514C56.313 20.436 56.0574 20.4013 55.806 20.41C55.3467 20.436 55.0824 20.5963 55.013 20.891C54.935 21.203 54.961 21.4067 55.091 21.502C55.247 21.6147 55.598 21.7273 56.144 21.84C56.95 21.9787 57.5004 22.113 57.795 22.243C58.5057 22.5637 58.9087 23.0793 59.004 23.79C59.082 24.3707 58.8654 24.8733 58.354 25.298C57.964 25.6187 57.47 25.8397 56.872 25.961C56.3 26.091 55.754 26.104 55.234 26ZM62.4376 25.961C62.3856 25.9437 62.2772 25.9177 62.1126 25.883C61.9566 25.8483 61.8179 25.8093 61.6966 25.766C61.5839 25.7227 61.4496 25.662 61.2936 25.584C61.1462 25.4973 61.0119 25.3847 60.8906 25.246C60.7692 25.0987 60.6652 24.9253 60.5786 24.726C60.4832 24.492 60.4226 24.0327 60.3966 23.348C60.3706 22.8193 60.3662 22.139 60.3836 21.307C60.3836 21.151 60.3879 20.891 60.3966 20.527L60.2926 20.54C60.1106 20.5573 59.9502 20.5097 59.8116 20.397C59.6729 20.2843 59.5906 20.1413 59.5646 19.968C59.5472 19.786 59.5949 19.6257 59.7076 19.487C59.8202 19.3483 59.9632 19.266 60.1366 19.24L60.4356 19.214C60.4442 18.7547 60.4572 18.291 60.4746 17.823C60.4832 17.641 60.5526 17.4893 60.6826 17.368C60.8126 17.2467 60.9686 17.1903 61.1506 17.199C61.3326 17.2077 61.4842 17.277 61.6056 17.407C61.7269 17.537 61.7832 17.693 61.7746 17.875L61.7356 19.11L62.1646 19.084C62.3466 19.0753 62.5026 19.1273 62.6326 19.24C62.7712 19.3527 62.8449 19.5 62.8536 19.682C62.8709 19.864 62.8232 20.0243 62.7106 20.163C62.5979 20.293 62.4506 20.3667 62.2686 20.384L61.6966 20.41C61.6879 20.826 61.6836 21.1293 61.6836 21.32C61.6662 22.1347 61.6706 22.7977 61.6966 23.309C61.7139 23.829 61.7399 24.128 61.7746 24.206C61.8092 24.284 61.8352 24.3403 61.8526 24.375C61.8699 24.401 61.9002 24.4313 61.9436 24.466C61.9956 24.492 62.0476 24.5093 62.0996 24.518C62.1516 24.5267 62.2469 24.5527 62.3856 24.596C62.5329 24.6307 62.6889 24.6783 62.8536 24.739C63.0182 24.791 63.1396 24.8993 63.2176 25.064C63.3042 25.22 63.3172 25.3847 63.2566 25.558C63.2046 25.7227 63.0962 25.8483 62.9316 25.935C62.7756 26.013 62.6109 26.0217 62.4376 25.961ZM67.3499 26.065C66.7086 26.0217 66.1496 25.8917 65.6729 25.675C65.1963 25.4583 64.8323 25.1853 64.5809 24.856C64.3296 24.5267 64.1476 24.2233 64.0349 23.946C63.9223 23.6687 63.8529 23.3957 63.8269 23.127C63.8009 22.8497 63.8139 22.4943 63.8659 22.061C63.9266 21.697 64.0523 21.3373 64.2429 20.982C64.4423 20.6267 64.7023 20.3103 65.0229 20.033C65.3523 19.747 65.7466 19.5303 66.2059 19.383C66.6653 19.227 67.1549 19.1793 67.6749 19.24C68.1776 19.3007 68.6066 19.4393 68.9619 19.656C69.3173 19.864 69.6206 20.1327 69.8719 20.462C70.0886 20.7393 70.2186 20.9473 70.2619 21.086C70.3139 21.2247 70.3573 21.3547 70.3919 21.476C70.4353 21.5973 70.4699 21.7013 70.4959 21.788C70.5219 21.8747 70.5436 21.9657 70.5609 22.061C70.5869 22.1477 70.6043 22.2517 70.6129 22.373C70.6216 22.5377 70.5913 22.6893 70.5219 22.828C70.4526 22.9667 70.3486 23.075 70.2099 23.153C70.0973 23.1963 69.9759 23.218 69.8459 23.218L67.6229 23.257C66.0629 23.2657 65.2829 23.283 65.2829 23.309H65.2439C65.3566 23.751 65.5906 24.0977 65.9459 24.349C66.3099 24.6003 66.8039 24.7477 67.4279 24.791C67.7659 24.8083 68.0476 24.791 68.2729 24.739C68.5243 24.6697 68.7063 24.609 68.8189 24.557C68.9316 24.4963 69.0703 24.4183 69.2349 24.323C69.3996 24.2623 69.5643 24.271 69.7289 24.349C69.8936 24.427 70.0063 24.5483 70.0669 24.713C70.1276 24.8777 70.1189 25.038 70.0409 25.194C69.9716 25.35 69.8589 25.4713 69.7029 25.558C69.5643 25.636 69.4213 25.7053 69.2739 25.766C69.1266 25.818 68.9099 25.883 68.6239 25.961C68.3379 26.039 67.9133 26.0737 67.3499 26.065ZM65.2699 22.035C65.7726 22.009 67.0769 21.983 69.1829 21.957C69.1049 21.697 68.9793 21.45 68.8059 21.216C68.4593 20.8173 68.0303 20.5877 67.5189 20.527C66.9816 20.4577 66.5093 20.5747 66.1019 20.878C65.6946 21.1727 65.4173 21.5583 65.2699 22.035ZM72.534 26C72.3607 26 72.209 25.9437 72.079 25.831C71.949 25.7097 71.884 25.5493 71.884 25.35L71.858 22.698C71.8493 22.1 71.845 21.3547 71.845 20.462V19.695C71.845 19.4957 71.9057 19.3397 72.027 19.227C72.1483 19.1143 72.2957 19.058 72.469 19.058C72.651 19.058 72.807 19.1187 72.937 19.24C73.0757 19.3527 73.145 19.513 73.145 19.721V20.111C73.2403 19.903 73.418 19.7253 73.678 19.578C74.0333 19.3613 74.4233 19.253 74.848 19.253C75.1687 19.253 75.4157 19.305 75.589 19.409C75.7623 19.513 75.849 19.6993 75.849 19.968C75.849 20.1413 75.797 20.2887 75.693 20.41C75.589 20.5227 75.4373 20.579 75.238 20.579C74.51 20.579 74.0073 20.6787 73.73 20.878C73.574 20.982 73.4353 21.1077 73.314 21.255C73.2013 21.4023 73.145 21.5453 73.145 21.684L73.171 23.309L73.184 25.35C73.184 25.5493 73.119 25.7097 72.989 25.831C72.859 25.9437 72.7073 26 72.534 26Z" fill="#F2F2F2"/>
<path d="M95.1801 25.37C94.9901 25.37 94.8001 25.3 94.6501 25.15C94.3601 24.86 94.3601 24.38 94.6501 24.09L96.6801 22.06L94.6501 20.03C94.3601 19.74 94.3601 19.26 94.6501 18.97C94.9401 18.68 95.4201 18.68 95.7101 18.97L98.2701 21.53C98.5601 21.82 98.5601 22.3 98.2701 22.59L95.7101 25.15C95.5701 25.3 95.3701 25.37 95.1801 25.37Z" fill="white"/>
<path d="M97.67 22.81H87.5C87.09 22.81 86.75 22.47 86.75 22.06C86.75 21.65 87.09 21.31 87.5 21.31H97.67C98.08 21.31 98.42 21.65 98.42 22.06C98.42 22.47 98.08 22.81 97.67 22.81Z" fill="white"/>
<path d="M95.5 30.75C95.09 30.75 94.75 30.41 94.75 30C94.75 29.59 95.09 29.25 95.5 29.25C99.77 29.25 102.75 26.27 102.75 22C102.75 17.73 99.77 14.75 95.5 14.75C95.09 14.75 94.75 14.41 94.75 14C94.75 13.59 95.09 13.25 95.5 13.25C100.65 13.25 104.25 16.85 104.25 22C104.25 27.15 100.65 30.75 95.5 30.75Z" fill="white"/>
</svg>
