<svg width="283" height="961" viewBox="0 0 283 961" fill="none" xmlns="http://www.w3.org/2000/svg">
<g clip-path="url(#clip0_2202_5130)">
<path d="M397.013 731.412C395.53 734.73 394.086 738.062 392.626 741.387C396.155 734.97 399.74 728.57 403.382 722.187C401.249 725.259 399.117 728.33 397.013 731.415M405.754 712.202C403.507 717.053 401.312 721.924 399.113 726.795C402.163 722.368 405.241 717.951 408.35 713.546C411.075 708.844 413.835 704.153 416.628 699.471C412.966 703.698 409.342 707.94 405.754 712.198L405.754 712.202ZM378.501 769.746C377.398 773.266 376.289 776.789 375.22 780.319C377.978 773.508 380.792 766.709 383.662 759.922C381.921 763.187 380.201 766.462 378.501 769.746ZM385.063 749.313C383.357 754.514 381.674 759.72 380.013 764.931C382.527 760.139 385.07 755.358 387.642 750.586C389.762 745.655 391.901 740.731 394.06 735.811C391.02 740.304 388.016 744.805 385.05 749.313L385.063 749.313ZM391.881 728.966C389.928 734.661 388.005 740.374 386.113 746.104C389.421 741.101 392.766 736.11 396.15 731.132C398.581 725.694 401.05 720.266 403.559 714.848C399.613 719.53 395.716 724.236 391.868 728.966L391.881 728.966ZM398.992 708.715C396.857 714.647 394.761 720.594 392.705 726.557C396.732 721.623 400.809 716.707 404.934 711.809C407.582 706.115 410.299 700.44 413.032 694.778C408.285 699.403 403.601 704.048 398.979 708.715L398.992 708.715ZM406.374 688.612C404.104 694.654 401.872 700.709 399.678 706.777C404.442 701.992 409.254 697.223 414.115 692.471C416.9 686.717 419.732 680.979 422.613 675.258C417.136 679.687 411.718 684.138 406.361 688.612L406.374 688.612ZM364.408 810.46C363.726 813.901 363.054 817.344 362.393 820.789C364.292 814.008 366.234 807.24 368.218 800.484C366.912 803.806 365.662 807.135 364.395 810.46L364.408 810.46ZM368.828 788.726C367.701 794.13 366.595 799.539 365.507 804.95C367.391 800.066 369.32 795.198 371.253 790.331C372.847 785.005 374.466 779.688 376.109 774.38C373.644 779.152 371.212 783.934 368.815 788.726L368.828 788.726ZM373.422 767.304C372.109 773.28 370.817 779.262 369.547 785.249C372.202 779.976 374.897 774.712 377.631 769.456C379.432 763.702 381.267 757.958 383.137 752.224C379.858 757.244 376.619 762.274 373.418 767.314L373.422 767.304ZM378.278 745.945C376.812 752.214 375.379 758.491 373.979 764.776C377.337 759.503 380.741 754.243 384.19 748.994C386.159 742.983 388.167 736.982 390.215 730.993C386.188 735.956 382.208 740.944 378.275 745.955L378.278 745.945ZM383.38 724.708C381.796 731.106 380.251 737.513 378.744 743.928C382.782 738.794 386.878 733.678 391.032 728.581C393.134 722.455 395.278 716.34 397.463 710.234C392.714 715.046 388.018 719.874 383.377 724.718L383.38 724.708ZM388.764 703.617C387.065 710.076 385.407 716.548 383.79 723.034C388.515 718.104 393.302 713.196 398.152 708.31C400.37 702.133 402.633 695.969 404.941 689.814C399.483 694.389 394.09 698.987 388.761 703.61L388.764 703.617ZM394.493 682.475C392.676 688.996 390.903 695.536 389.175 702.094C394.564 697.416 400.026 692.767 405.561 688.147C407.904 681.914 410.293 675.697 412.73 669.497C406.577 673.79 400.497 678.114 394.49 682.469L394.493 682.475ZM400.514 661.502C398.585 668.027 396.706 674.569 394.877 681.127C400.936 676.733 407.076 672.374 413.295 668.05C415.745 661.824 418.245 655.616 420.795 649.427C413.955 653.417 407.194 657.44 400.511 661.495L400.514 661.502ZM354.663 852.825C354.32 856.358 353.983 859.894 353.652 863.434C354.867 856.456 356.108 849.484 357.377 842.517C356.455 845.944 355.562 849.381 354.66 852.819L354.663 852.825ZM356.96 830.362C356.374 835.919 355.803 841.476 355.247 847.035C356.59 841.982 357.953 836.944 359.335 831.921C360.35 826.501 361.384 821.085 362.436 815.674C360.583 820.56 358.754 825.454 356.947 830.356L356.96 830.362ZM359.434 807.909C358.721 814.112 358.033 820.318 357.37 826.53C359.378 821.075 361.452 815.654 363.522 810.206C364.719 804.14 365.945 798.08 367.201 792.025C364.567 797.304 361.974 802.597 359.421 807.903L359.434 807.909ZM362.105 785.545C361.289 792.084 360.502 798.628 359.746 805.177C362.443 799.601 365.177 794.038 367.949 788.488C369.261 782.174 370.613 775.867 372.004 769.568C368.644 774.874 365.34 780.198 362.092 785.539L362.105 785.545ZM365.002 763.264C364.09 769.96 363.215 776.662 362.377 783.367C365.722 777.903 369.118 772.455 372.565 767.024C373.994 760.565 375.457 754.113 376.955 747.669C372.902 752.847 368.913 758.044 364.989 763.257L365.002 763.264ZM368.168 740.989C367.162 747.8 366.192 754.618 365.258 761.445C369.261 756.152 373.316 750.879 377.421 745.626C378.953 739.087 380.521 732.56 382.127 726.043C377.397 730.991 372.74 735.971 368.155 740.982L368.168 740.989ZM371.581 718.862C370.487 725.706 369.427 732.561 368.401 739.427C373.052 734.373 377.763 729.346 382.534 724.346C384.161 717.788 385.827 711.24 387.531 704.704C382.136 709.397 376.816 714.114 371.568 718.855L371.581 718.862ZM375.275 696.709C374.075 703.617 372.916 710.537 371.801 717.471C377.108 712.682 382.486 707.918 387.938 703.182C389.687 696.557 391.476 689.947 393.302 683.352C387.208 687.779 381.195 692.229 375.262 696.702L375.275 696.709ZM379.288 674.684C377.976 681.592 376.711 688.513 375.492 695.447C381.475 690.925 387.538 686.438 393.683 681.984C395.527 675.373 397.417 668.782 399.353 662.21C392.572 666.332 385.879 670.488 379.275 674.678L379.288 674.684ZM348.996 896.888C348.961 900.366 348.929 903.842 348.898 907.318C349.456 900.496 350.031 893.675 350.624 886.856C350.056 890.194 349.525 893.536 348.983 896.881L348.996 896.888ZM349.298 873.706C349.206 879.366 349.129 885.024 349.065 890.682C349.916 885.484 350.781 880.286 351.661 875.09C352.166 869.497 352.687 863.905 353.223 858.316C351.882 863.439 350.569 868.567 349.285 873.7L349.298 873.706ZM349.745 850.41C349.6 856.84 349.474 863.269 349.367 869.695C350.811 864.014 352.277 858.336 353.764 852.661C354.374 846.432 355.003 840.206 355.651 833.984C353.649 839.448 351.661 844.919 349.731 850.403L349.745 850.41ZM350.335 827.159C350.14 833.917 349.966 840.679 349.81 847.444C351.854 841.67 353.951 835.909 356.044 830.148C356.74 823.57 357.462 816.995 358.21 810.424C355.543 815.987 352.914 821.563 350.322 827.152L350.335 827.159ZM351.1 803.965C350.842 810.931 350.609 817.905 350.401 824.885C353.069 819.142 355.781 813.411 358.535 807.692C359.309 800.942 360.112 794.199 360.943 787.46C357.607 792.944 354.322 798.443 351.086 803.958L351.1 803.965ZM352.084 780.717C351.745 787.827 351.44 794.942 351.169 802.063C354.465 796.458 357.809 790.869 361.199 785.295C362.055 778.451 362.94 771.613 363.857 764.78C359.876 770.068 355.95 775.378 352.081 780.711L352.084 780.717ZM353.285 757.529C352.876 764.709 352.501 771.899 352.159 779.099C356.084 773.697 360.067 768.314 364.11 762.951C365.052 756.023 366.037 749.103 367.063 742.188C362.397 747.281 357.803 752.393 353.282 757.523L353.285 757.529ZM354.719 734.43C354.227 741.646 353.775 748.872 353.364 756.109C357.938 750.933 362.576 745.779 367.279 740.649C368.309 733.702 369.377 726.768 370.482 719.847C365.151 724.679 359.895 729.538 354.716 734.424L354.719 734.43ZM356.455 711.289C355.864 718.557 355.317 725.837 354.814 733.129C360.036 728.209 365.335 723.318 370.711 718.453C371.833 711.464 372.997 704.485 374.203 697.516C370.307 700.469 366.444 703.435 362.613 706.414C360.53 708.023 358.495 709.654 356.451 711.282L356.455 711.289ZM358.479 688.219C357.792 695.503 357.15 702.8 356.553 710.112C358.368 708.665 360.162 707.219 362.013 705.785C366.099 702.599 370.231 699.431 374.409 696.281C375.63 689.3 376.895 682.334 378.206 675.38C371.54 679.614 364.964 683.888 358.476 688.203L358.479 688.219ZM347.084 942.436C347.302 945.822 347.526 949.208 347.756 952.593C347.756 946.002 347.775 939.397 347.812 932.777C347.567 935.995 347.324 939.215 347.084 942.436ZM345.561 918.586C345.922 924.344 346.288 930.099 346.66 935.848C347.058 930.575 347.464 925.292 347.878 920C347.91 914.318 347.954 908.636 348.009 902.955C347.18 908.162 346.366 913.371 345.568 918.583L345.561 918.586ZM344.107 894.663C344.495 901.21 344.892 907.759 345.299 914.308C346.204 908.475 347.126 902.643 348.065 896.812C348.132 890.392 348.213 883.974 348.307 877.559C346.883 883.256 345.483 888.953 344.107 894.65L344.107 894.663ZM342.743 870.651C343.119 877.618 343.513 884.585 343.924 891.552C345.381 885.561 346.861 879.574 348.366 873.591C348.474 866.811 348.6 860.032 348.747 853.254C346.719 859.045 344.718 864.843 342.743 870.648L342.743 870.651ZM341.512 846.593C341.862 853.795 342.229 861.002 342.611 868.212C344.65 862.214 346.717 856.226 348.813 850.248C348.97 843.246 349.148 836.248 349.348 829.255C346.69 835.014 344.078 840.79 341.512 846.583L341.512 846.593ZM340.416 822.476C340.729 829.827 341.057 837.188 341.4 844.557C344.025 838.684 346.692 832.823 349.4 826.974C349.619 819.856 349.851 812.741 350.096 805.629C346.83 811.234 343.603 816.849 340.416 822.476ZM339.494 798.402C339.75 805.861 340.033 813.325 340.344 820.795C343.566 815.083 346.847 809.395 350.188 803.731C350.457 796.496 350.762 789.271 351.103 782.055C347.172 787.491 343.303 792.945 339.494 798.418L339.494 798.402ZM338.789 774.278C338.979 781.809 339.198 789.347 339.445 796.892C343.288 791.384 347.196 785.898 351.169 780.434C351.51 773.153 351.886 765.883 352.297 758.624C347.73 763.824 343.227 769.045 338.789 774.288L338.789 774.278ZM338.293 750.266C338.409 757.815 338.563 765.376 338.756 772.95C343.218 767.677 347.776 762.43 352.376 757.203C352.796 749.907 353.249 742.619 353.735 735.34C348.509 740.294 343.362 745.273 338.293 750.276L338.293 750.266ZM338.05 726.165C338.083 733.776 338.155 741.401 338.267 749.04C343.373 744.009 348.557 739.009 353.82 734.042C354.319 726.703 354.865 719.375 355.46 712.057C349.583 716.736 343.779 721.443 338.05 726.175L338.05 726.165ZM338.1 702.107C338.038 709.74 338.022 717.387 338.05 725.048C343.797 720.285 349.634 715.561 355.562 710.877C356.157 703.523 356.799 696.185 357.488 688.862C350.93 693.245 344.467 697.661 338.1 702.11L338.1 702.107ZM342.286 940.301C343.146 946.951 344.011 953.595 344.882 960.232C345.302 954.3 345.731 948.363 346.168 942.42C345.731 935.888 345.311 929.353 344.908 922.814C344.018 928.645 343.144 934.474 342.286 940.301ZM339.117 915.702C340.022 922.797 340.935 929.889 341.853 936.979C342.768 930.827 343.697 924.675 344.642 918.523C344.205 911.576 343.782 904.626 343.372 897.672C341.929 903.683 340.51 909.693 339.117 915.702ZM336.01 891.008C336.926 898.377 337.851 905.744 338.785 913.109C340.229 906.926 341.697 900.748 343.189 894.574C342.751 887.376 342.34 880.178 341.955 872.978C339.934 878.978 337.952 884.994 336.01 891.025L336.01 891.008ZM332.981 866.172C333.887 873.739 334.808 881.306 335.744 888.873C337.742 882.746 339.75 876.62 341.82 870.51C341.42 863.154 341.042 855.803 340.685 848.459C338.073 854.351 335.505 860.256 332.981 866.172ZM330.061 841.304C330.936 848.994 331.837 856.683 332.764 864.373C335.33 858.382 337.938 852.401 340.587 846.432C340.224 838.951 339.883 831.474 339.566 824.002C336.349 829.749 333.18 835.517 330.061 841.304ZM327.288 816.382C328.124 824.167 328.988 831.954 329.88 839.745C333.037 833.912 336.241 828.097 339.494 822.301C339.179 814.759 338.888 807.222 338.621 799.69C334.778 805.229 331 810.793 327.288 816.382ZM324.683 791.415C325.473 799.267 326.292 807.126 327.14 814.992C330.892 809.369 334.703 803.767 338.572 798.184C338.316 790.571 338.091 782.965 337.896 775.365C333.414 780.687 329.01 786.036 324.683 791.415ZM322.271 766.451C322.997 774.343 323.763 782.243 324.568 790.153C328.943 784.752 333.378 779.369 337.873 774.004C337.683 766.374 337.524 758.754 337.398 751.146C332.274 756.223 327.232 761.325 322.271 766.451ZM320.102 741.384C320.759 749.335 321.447 757.3 322.166 765.277C327.147 760.13 332.214 755.013 337.368 749.926C337.25 742.237 337.171 734.57 337.132 726.926C331.37 731.718 325.671 736.53 320.102 741.404L320.102 741.384ZM318.183 716.42C318.752 724.369 319.362 732.33 320.014 740.303C325.612 735.426 331.344 730.601 337.132 725.803C337.099 718.113 337.113 710.433 337.174 702.763C330.739 707.278 324.408 711.832 318.183 716.427L318.183 716.42ZM334.31 936.794C335.738 944.295 337.17 951.787 338.605 959.27C339.508 952.938 340.427 946.61 341.361 940.284C340.407 932.942 339.461 925.593 338.523 918.24C337.094 924.427 335.69 930.614 334.31 936.801L334.31 936.794ZM329.49 911.457C330.944 919.16 332.405 926.858 333.87 934.55C335.281 928.249 336.716 921.951 338.175 915.656C337.217 908.122 336.266 900.587 335.324 893.051C333.352 899.171 331.422 905.311 329.49 911.457ZM324.706 885.883C326.167 893.773 327.641 901.66 329.129 909.543C331.078 903.327 333.054 897.117 335.058 890.913C334.106 883.223 333.169 875.533 332.246 867.843C329.702 873.85 327.193 879.862 324.719 885.88L324.706 885.883ZM320.014 860.277C321.46 868.265 322.922 876.256 324.401 884.249C326.901 878.172 329.445 872.109 332.033 866.06C331.096 858.276 330.182 850.495 329.29 842.718C326.155 848.557 323.067 854.409 320.027 860.273L320.014 860.277ZM315.42 834.571C316.84 842.658 318.283 850.748 319.751 858.84C322.814 852.934 325.932 847.044 329.106 841.169C328.205 833.305 327.33 825.445 326.481 817.589C322.743 823.222 319.061 828.878 315.436 834.558L315.42 834.571ZM310.964 808.793C312.347 816.95 313.755 825.11 315.19 833.272C318.832 827.56 322.546 821.868 326.33 816.198C325.475 808.275 324.648 800.357 323.849 792.443C319.494 797.859 315.205 803.304 310.981 808.779L310.964 808.793ZM306.699 782.971C308.024 791.178 309.382 799.39 310.771 807.609C315.01 802.117 319.329 796.644 323.728 791.191C322.927 783.233 322.162 775.281 321.431 767.334C316.442 772.508 311.534 777.716 306.708 782.958L306.699 782.971ZM302.61 757.108C303.875 765.342 305.176 773.589 306.515 781.848C311.358 776.575 316.291 771.346 321.313 766.161C320.578 758.152 319.885 750.154 319.233 742.165C313.602 747.1 308.065 752.076 302.62 757.094L302.61 757.108ZM298.775 731.161C299.956 739.449 301.181 747.749 302.45 756.063C307.918 751.032 313.483 746.035 319.144 741.074C318.488 733.066 317.873 725.069 317.3 717.082C311.022 721.723 304.85 726.411 298.784 731.148L298.775 731.161ZM323.206 932.012C325.175 940.001 327.158 947.984 329.155 955.961C330.538 949.57 331.941 943.182 333.365 936.797C331.871 928.978 330.387 921.151 328.912 913.316C326.979 919.532 325.08 925.759 323.216 931.999L323.206 932.012ZM316.736 905.786C318.742 913.948 320.754 922.106 322.773 930.259C324.665 923.971 326.59 917.685 328.548 911.401C327.045 903.422 325.551 895.439 324.066 887.452C322.163 892.119 320.282 896.793 318.422 901.475C317.861 902.889 317.304 904.336 316.746 905.773L316.736 905.786ZM310.301 879.467C312.31 887.732 314.329 895.996 316.358 904.257C316.757 903.23 317.156 902.207 317.556 901.185C319.595 896.053 321.664 890.927 323.764 885.808C322.268 877.742 320.789 869.677 319.328 861.611C318.964 862.317 318.586 863.019 318.225 863.724C315.546 868.948 312.908 874.192 310.311 879.454L310.301 879.467ZM303.956 853.043C305.944 861.392 307.95 869.741 309.973 878.089C312.408 873.17 314.883 868.261 317.399 863.361C317.947 862.29 318.514 861.229 319.065 860.161C317.589 852.006 316.132 843.851 314.695 835.698C311.851 840.184 309.043 844.688 306.269 849.21C305.494 850.469 304.733 851.751 303.965 853.03L303.956 853.043ZM297.702 826.5C299.67 834.926 301.657 843.357 303.66 851.794C304.257 850.805 304.855 849.793 305.468 848.798C308.419 843.984 311.418 839.187 314.465 834.406C313.022 826.193 311.6 817.984 310.2 809.778C306.814 814.192 303.473 818.622 300.179 823.069C299.359 824.193 298.535 825.34 297.711 826.487L297.702 826.5ZM291.579 799.838C293.502 808.337 295.453 816.843 297.433 825.356C298.089 824.434 298.745 823.514 299.428 822.601C302.895 817.91 306.421 813.239 310.006 808.588C308.608 800.325 307.242 792.068 305.908 783.818C301.052 789.118 296.279 794.453 291.589 799.825L291.579 799.838ZM285.643 773.144C287.507 781.666 289.405 790.198 291.336 798.738C296.035 793.348 300.83 787.996 305.721 782.682C304.382 774.392 303.075 766.113 301.8 757.846C296.32 762.908 290.938 768.007 285.653 773.144L285.643 773.144ZM279.905 746.347C281.705 754.934 283.548 763.534 285.433 772.149C290.729 766.997 296.133 761.885 301.646 756.814C300.366 748.465 299.133 740.132 297.948 731.814C291.823 736.603 285.808 741.448 279.905 746.347ZM309.041 925.816C311.575 934.222 314.112 942.622 316.654 951.015C318.493 944.661 320.365 938.315 322.268 931.976C320.229 923.741 318.196 915.502 316.168 907.259C313.753 913.43 311.378 919.612 309.041 925.803L309.041 925.816ZM300.943 898.862C303.49 907.371 306.046 915.876 308.612 924.376C310.961 918.145 313.355 911.925 315.794 905.717C313.747 897.392 311.711 889.065 309.688 880.736C306.724 886.765 303.809 892.807 300.943 898.862ZM292.882 871.752C295.428 880.358 297.987 888.965 300.56 897.573C303.438 891.489 306.369 885.421 309.353 879.368C307.317 870.96 305.297 862.553 303.293 854.147C299.758 859.993 296.288 865.862 292.882 871.752ZM284.866 844.494C287.392 853.183 289.942 861.874 292.514 870.565C295.935 864.653 299.425 858.764 302.984 852.898C300.965 844.419 298.966 835.941 296.986 827.462C292.881 833.115 288.84 838.793 284.866 844.494ZM276.961 817.14C279.466 825.891 281.994 834.647 284.544 843.406C288.517 837.683 292.574 831.989 296.717 826.325C294.729 817.781 292.768 809.241 290.834 800.705C286.122 806.141 281.508 811.617 276.991 817.134L276.961 817.14ZM269.195 789.596C271.649 798.408 274.137 807.232 276.66 816.066C281.209 810.538 285.851 805.046 290.585 799.588C288.647 791.019 286.741 782.451 284.869 773.882C279.563 779.086 274.307 784.306 269.208 789.589L269.195 789.596ZM261.605 762.048C264.012 770.889 266.449 779.744 268.919 788.614C274.038 783.324 279.307 778.094 284.646 772.89C282.763 764.249 280.911 755.618 279.091 746.997C276.302 749.321 273.537 751.656 270.796 754C267.699 756.659 264.65 759.345 261.618 762.041L261.605 762.048ZM291.884 918.447C294.947 927.174 298.022 935.896 301.111 944.611C303.377 938.323 305.696 932.046 308.067 925.78C305.488 917.225 302.917 908.665 300.353 900.101C297.495 906.185 294.657 912.308 291.897 918.441L291.884 918.447ZM282.172 890.735C285.254 899.567 288.348 908.397 291.454 917.225C294.23 911.073 297.067 904.935 299.966 898.812C297.376 890.151 294.799 881.495 292.235 872.843C288.825 878.781 285.475 884.743 282.185 890.728L282.172 890.735ZM272.482 862.834C275.556 871.752 278.651 880.668 281.768 889.581C285.049 883.58 288.452 877.608 291.884 871.656C289.301 862.919 286.737 854.186 284.193 845.46C280.219 851.229 276.319 857.018 272.496 862.827L272.482 862.834ZM262.865 834.821C265.928 843.794 269.01 852.773 272.112 861.756C275.942 855.919 279.863 850.118 283.875 844.356C281.315 835.567 278.778 826.779 276.262 817.991C271.704 823.571 267.244 829.183 262.882 834.825L262.865 834.821ZM253.35 806.588C256.382 815.644 259.444 824.707 262.537 833.777C266.912 828.121 271.396 822.503 275.99 816.923C273.457 808.06 270.959 799.205 268.496 790.357C263.308 795.722 258.288 801.14 253.366 806.591L253.35 806.588ZM243.953 778.246C246.939 787.359 249.963 796.484 253.025 805.619C257.98 800.158 263.013 794.743 268.194 789.362C265.718 780.47 263.271 771.586 260.854 762.71C255.097 767.84 249.463 773.019 243.953 778.246ZM271.912 910.014C275.51 919.044 279.119 928.066 282.739 937.081C285.417 930.843 288.151 924.619 290.942 918.408C287.825 909.543 284.718 900.676 281.621 891.809C278.304 897.855 275.068 903.924 271.912 910.014ZM260.601 881.54C264.206 890.667 267.83 899.79 271.472 908.91C274.646 902.802 277.889 896.718 281.201 890.659C278.07 881.701 274.96 872.747 271.869 863.796C268.028 869.678 264.272 875.592 260.601 881.54ZM249.331 852.921C252.931 862.116 256.551 871.31 260.191 880.505C263.875 874.551 267.644 868.624 271.498 862.725C268.388 853.717 265.295 844.709 262.219 835.701C257.82 841.398 253.524 847.138 249.331 852.921ZM238.092 824.025C241.68 833.31 245.289 842.6 248.92 851.896C253.131 846.109 257.442 840.359 261.851 834.647C258.754 825.549 255.685 816.455 252.644 807.366C247.683 812.874 242.833 818.427 238.092 824.025ZM226.936 794.987C230.493 804.34 234.084 813.703 237.708 823.076C242.453 817.467 247.322 811.907 252.316 806.397C249.254 797.239 246.219 788.087 243.211 778.941C237.672 784.247 232.229 789.579 226.95 794.987L226.936 794.987ZM262.022 929.537C266.119 938.747 270.22 947.955 274.323 957.161C276.896 950.844 279.521 944.545 282.198 938.264C278.574 929.208 274.952 920.146 271.334 911.078C268.187 917.208 265.057 923.358 262.035 929.537L262.022 929.537ZM249.18 900.582C253.294 909.882 257.421 919.181 261.559 928.479C264.598 922.283 267.735 916.124 270.917 909.981C267.269 900.826 263.631 891.668 260.004 882.509C256.319 888.494 252.69 894.511 249.18 900.582ZM236.344 871.449C240.458 880.821 244.587 890.192 248.73 899.56C252.251 893.496 255.893 887.475 259.594 881.474C255.945 872.246 252.314 863.019 248.7 853.791C244.474 859.637 240.355 865.52 236.344 871.439L236.344 871.449ZM223.465 841.969C227.588 851.456 231.734 860.948 235.904 870.444C239.927 864.512 244.058 858.624 248.297 852.782C244.648 843.456 241.024 834.134 237.423 824.816C232.648 830.482 227.995 836.197 223.465 841.96L223.465 841.969ZM210.668 812.368C214.763 821.912 218.886 831.463 223.038 841.02C227.566 835.25 232.255 829.538 237.039 823.883C233.415 814.491 229.814 805.103 226.237 795.719C220.904 801.198 215.719 806.745 210.681 812.358L210.668 812.368ZM234.007 750.381C227.839 755.454 221.823 760.591 215.961 765.791C219.472 775.215 223.019 784.648 226.602 794.091C231.891 788.676 237.348 783.327 242.913 778.028C239.9 768.794 236.932 759.578 234.007 750.381ZM253.481 734.958C247.096 739.835 240.862 744.771 234.778 749.765C237.705 758.936 240.67 768.119 243.674 777.316C249.188 772.076 254.839 766.893 260.624 761.768C258.192 752.817 255.807 743.88 253.471 734.958L253.481 734.958ZM273.621 720.108C267.032 724.801 260.579 729.551 254.262 734.358C256.592 743.256 258.961 752.17 261.369 761.099C264.28 758.515 267.2 755.934 270.186 753.38C273.06 750.915 275.968 748.464 278.91 746.028C277.097 737.373 275.331 728.734 273.611 720.108L273.621 720.108ZM294.368 705.802C287.587 710.323 280.944 714.897 274.438 719.524C276.155 728.126 277.915 736.741 279.718 745.369C285.624 740.469 291.657 735.616 297.817 730.809C296.62 722.458 295.467 714.125 294.358 705.811L294.368 705.802ZM315.696 692.003C308.757 696.364 301.934 700.771 295.228 705.225C296.321 713.521 297.466 721.831 298.663 730.156C304.751 725.41 310.948 720.708 317.254 716.048C316.661 708.017 316.135 700.002 315.676 692.003L315.696 692.003ZM337.522 678.695C330.433 682.9 323.454 687.153 316.585 691.452C317.055 699.421 317.57 707.404 318.13 715.402C324.378 710.788 330.736 706.22 337.204 701.698C337.25 694.013 337.349 686.345 337.502 678.695L337.522 678.695ZM359.834 665.819C352.602 669.882 345.477 673.99 338.457 678.145C338.298 685.762 338.188 693.397 338.129 701.049C344.528 696.578 351.023 692.147 357.616 687.755C358.294 680.425 359.025 673.113 359.808 665.819L359.834 665.819ZM382.586 653.345C375.229 657.28 367.975 661.254 360.822 665.266C360.028 672.516 359.29 679.791 358.607 687.092C365.13 682.755 371.747 678.456 378.458 674.193C379.771 667.224 381.138 660.275 382.56 653.345L382.586 653.345ZM405.718 641.26C398.281 645.063 390.922 648.903 383.642 652.778C382.225 659.673 380.853 666.585 379.528 673.514C386.173 669.303 392.907 665.128 399.73 660.991C401.662 654.4 403.649 647.823 405.692 641.26L405.718 641.26ZM208.184 772.841C204.719 776.037 201.317 779.258 197.977 782.504C202.05 792.146 206.156 801.798 210.294 811.459C215.358 805.843 220.563 800.287 225.909 794.79C222.313 785.325 218.759 775.877 215.245 766.447C212.868 768.565 210.514 770.696 208.184 772.841ZM238.309 920.026C242.903 929.473 247.503 938.921 252.11 948.368C255.02 942.064 257.98 935.772 261.041 929.514C256.885 920.194 252.747 910.87 248.628 901.541C245.091 907.673 241.651 913.835 238.309 920.026ZM223.954 890.395C228.563 899.946 233.187 909.492 237.827 919.034C241.191 912.827 244.641 906.657 248.176 900.523C244.019 891.119 239.876 881.716 235.746 872.312C231.706 878.306 227.775 884.336 223.954 890.402L223.954 890.395ZM209.553 860.504C214.173 870.138 218.813 879.773 223.475 889.41C227.301 883.333 231.245 877.298 235.307 871.307C231.126 861.796 226.97 852.285 222.838 842.774C218.266 848.635 213.838 854.548 209.553 860.511L209.553 860.504ZM195.158 830.306C199.778 840.055 204.427 849.809 209.106 859.568C213.422 853.605 217.862 847.691 222.425 841.825C218.269 832.241 214.133 822.665 210.019 813.097C204.923 818.782 199.939 824.506 195.158 830.313L195.158 830.306ZM180.855 799.987C185.449 809.788 190.077 819.599 194.738 829.42C199.535 823.61 204.526 817.885 209.631 812.19C205.475 802.512 201.36 792.845 197.284 783.189C191.632 788.715 186.155 794.316 180.852 799.993L180.855 799.987ZM88.4081 960.994C103.521 900.865 135.152 847.661 179.786 799.838C32.6346 485.642 -77.0094 182.201 68.5538 -0.00621403L69.7219 -0.00621383C-76.1104 181.773 33.3631 485.035 180.439 799.13C185.757 793.448 191.245 787.839 196.904 782.303C66.2503 472.726 -23.5327 175.376 143.224 -0.00620098L144.451 -0.00620076C-22.6139 174.948 67.0148 472.139 197.606 781.633C200.854 778.478 204.161 775.348 207.525 772.241C209.955 769.996 212.417 767.764 214.911 765.548C101.215 460.216 31.9685 168.657 220.981 -0.0226664L222.32 -0.0226662C32.9299 168.222 102.002 459.629 215.633 764.905C221.495 759.702 227.518 754.563 233.702 749.488C137.564 448.114 89.5304 162.052 301.823 0.000419381L303.3 0.000419639C90.5279 161.597 138.374 447.544 234.463 748.872C240.566 743.869 246.82 738.926 253.225 734.042C175.376 436.316 149.583 155.547 386.369 -0.00285964L387.928 -0.00285937C150.613 155.079 176.226 435.739 254.023 733.448C260.351 728.635 266.818 723.877 273.424 719.175C218.586 443.949 212.923 185.052 427 30.6134L427 31.7042C214.025 185.866 219.57 444.054 274.241 718.592C280.773 713.958 287.435 709.375 294.227 704.842C263.328 470.567 271.84 249.58 427 97.6461L427 98.905C272.867 250.503 264.339 470.752 295.077 704.276C301.799 699.809 308.646 695.392 315.617 691.024C304.461 500.445 322.094 319.701 427 179.433L427 180.949C323.016 320.772 305.455 500.722 316.509 690.47C323.398 686.164 330.398 681.903 337.509 677.687C340.613 533.385 361.961 395.388 426.987 277.151L426.987 279.06C362.778 396.683 341.588 533.781 338.451 677.14C345.499 672.965 352.654 668.842 359.916 664.771C370.551 567.514 390.349 473.458 427 386.714L427 389.08C391.012 474.984 371.463 568.032 360.904 664.221C368.096 660.189 375.39 656.2 382.786 652.254C393.942 598.088 408.265 545.032 427 493.778L427 496.441C408.786 546.683 394.802 598.651 383.843 651.684C391.151 647.793 398.553 643.939 406.05 640.12C412.505 619.505 419.488 599.084 427 578.858L427 581.494C419.908 600.655 413.307 619.996 407.195 639.517C413.727 636.197 420.328 632.902 427 629.63L427 630.582C420.208 633.909 413.488 637.265 406.841 640.651C404.8 647.169 402.811 653.702 400.875 660.25C407.604 656.167 414.418 652.117 421.317 648.099C423.185 643.573 425.08 639.057 427 634.55L427 636.877C425.519 640.364 424.056 643.854 422.61 647.347L427 644.806L427 645.795C425.355 646.744 423.715 647.694 422.078 648.646C419.556 654.769 417.076 660.91 414.637 667.068C418.725 664.227 422.845 661.399 426.997 658.582L426.997 659.673C422.652 662.621 418.345 665.587 414.075 668.571C411.669 674.692 409.302 680.825 406.975 686.97C412.444 682.416 417.971 677.888 423.558 673.386C424.698 671.123 425.844 668.862 426.997 666.604L426.997 668.571C426.424 669.696 425.852 670.822 425.281 671.949L426.997 670.575L426.997 671.705C426.106 672.417 425.219 673.13 424.336 673.844C421.527 679.414 418.756 684.994 416.021 690.586C419.644 687.07 423.302 683.575 426.997 680.099L426.997 681.285C422.93 685.141 418.906 689.009 414.925 692.889C412.329 698.261 409.764 703.644 407.231 709.038C411.199 704.362 415.212 699.702 419.27 695.058C421.816 690.82 424.391 686.59 426.997 682.37L426.997 684.06C425.507 686.477 424.027 688.901 422.557 691.331C424.032 689.654 425.511 687.981 426.997 686.311L426.997 687.63C424.663 690.253 422.344 692.889 420.041 695.539C418.098 698.765 416.159 701.995 414.249 705.235C418.436 699.401 422.685 693.592 426.997 687.808L426.997 689.271C420.933 697.453 414.989 705.675 409.163 713.938C402.074 726.159 395.198 738.449 388.535 750.81C382.858 764.034 377.378 777.32 372.093 790.667C367.974 804.447 364.014 818.264 360.215 832.119C357.529 846.457 354.975 860.826 352.553 875.226C351.208 890.148 349.955 905.078 348.793 920.016C348.708 933.693 348.663 947.358 348.658 961.01L347.392 961.01C347.127 957.023 346.864 953.032 346.601 949.037C346.312 953.027 346.026 957.018 345.741 961.01L344.055 961.01C343.298 955.221 342.542 949.426 341.788 943.626C340.937 949.424 340.1 955.219 339.278 961.01L338.021 961.01C336.621 953.698 335.221 946.379 333.821 939.052C332.417 945.353 331.037 951.657 329.683 957.965L330.441 961.01L329.49 961.01L329.231 959.979L329.007 961.01L328.079 961.01L328.735 957.972C326.725 949.893 324.716 941.809 322.708 933.719C320.824 940.018 318.971 946.323 317.149 952.633L319.689 961.01L318.741 961.01L316.687 954.241C316.03 956.497 315.385 958.754 314.751 961.01L313.793 961.01C314.589 958.216 315.391 955.421 316.198 952.626C313.632 944.159 311.072 935.687 308.52 927.211C306.177 933.455 303.873 939.708 301.609 945.972L306.922 961.01L305.96 961.01C304.348 956.454 302.737 951.894 301.127 947.33C299.491 951.885 297.88 956.445 296.294 961.01L295.329 961.01C297.079 955.99 298.851 950.976 300.645 945.969C297.545 937.198 294.451 928.423 291.362 919.644C288.584 925.835 285.867 932.046 283.209 938.277C286.245 945.861 289.283 953.441 292.324 961.017L291.339 961.017C288.459 953.839 285.579 946.656 282.7 939.467C280.027 945.735 277.409 952.019 274.845 958.318L276.049 961.017L275.065 961.017L274.376 959.474L273.752 961.017L272.768 961.017L273.854 958.331C269.737 949.103 265.624 939.867 261.514 930.621C258.469 936.87 255.502 943.145 252.615 949.446L258.259 961.017L257.274 961.017L252.146 950.504C250.54 954.002 248.96 957.506 247.404 961.017L246.42 961.017C248.133 957.15 249.873 953.295 251.64 949.453C247.021 939.985 242.406 930.509 237.797 921.025C230.694 934.207 224.023 947.538 217.782 961.017L216.797 961.017C223.183 947.193 230.024 933.53 237.321 920.029C232.671 910.459 228.032 900.886 223.406 891.311C209.366 913.688 196.816 936.974 185.84 961.017L184.793 961.017C195.915 936.622 208.655 913.004 222.927 890.323C218.259 880.671 213.608 871.016 208.975 861.358C186.233 892.995 167.327 926.146 152.778 961.017L151.764 961.017C166.431 925.806 185.525 892.349 208.529 860.425C203.843 850.644 199.183 840.867 194.548 831.094C161.69 871.139 136.369 914.232 120.065 961.017L119.051 961.017C135.437 913.89 160.971 870.506 194.121 830.198C189.455 820.363 184.819 810.536 180.212 800.715C135.883 848.3 104.453 901.231 89.4055 961.017L88.4081 960.994Z" fill="#FDDEBB"/>
</g>
<defs>
<clipPath id="clip0_2202_5130">
<rect width="427" height="961" fill="white"/>
</clipPath>
</defs>
</svg>
