<svg width="283" height="961" viewBox="0 0 283 961" fill="none" xmlns="http://www.w3.org/2000/svg">
<g clip-path="url(#clip0_2202_5126)">
<path d="M-114.943 229.588C-113.456 226.27 -112.009 222.938 -110.546 219.613C-114.082 226.03 -117.676 232.43 -121.327 238.813C-119.189 235.741 -117.051 232.67 -114.943 229.585M-123.705 248.799C-121.452 243.947 -119.251 239.076 -117.048 234.206C-120.104 238.633 -123.19 243.049 -126.306 247.454C-129.038 252.156 -131.804 256.848 -134.604 261.53C-130.933 257.302 -127.3 253.06 -123.705 248.802L-123.705 248.799ZM-96.3873 191.254C-95.2822 187.734 -94.1706 184.211 -93.0984 180.682C-95.8633 187.493 -98.684 194.291 -101.561 201.078C-99.8154 197.813 -98.0909 194.539 -96.3873 191.254ZM-102.965 211.687C-101.255 206.486 -99.5676 201.28 -97.9034 196.069C-100.423 200.861 -102.972 205.643 -105.55 210.415C-107.675 215.345 -109.819 220.27 -111.983 225.189C-108.935 220.696 -105.925 216.195 -102.952 211.687L-102.965 211.687ZM-109.799 232.034C-107.841 226.339 -105.914 220.627 -104.017 214.897C-107.333 219.899 -110.686 224.89 -114.078 229.869C-116.514 235.306 -118.99 240.734 -121.504 246.152C-117.549 241.47 -113.643 236.764 -109.786 232.034L-109.799 232.034ZM-116.926 252.285C-114.786 246.353 -112.686 240.406 -110.625 234.443C-114.661 239.378 -118.747 244.293 -122.882 249.191C-125.537 254.886 -128.26 260.561 -130.999 266.222C-126.241 261.598 -121.546 256.952 -116.913 252.285L-116.926 252.285ZM-124.326 272.389C-122.05 266.347 -119.813 260.291 -117.614 254.223C-122.389 259.008 -127.213 263.777 -132.085 268.529C-134.876 274.284 -137.715 280.021 -140.603 285.742C-135.113 281.313 -129.683 276.862 -124.313 272.389L-124.326 272.389ZM-82.2615 150.54C-81.5775 147.099 -80.9043 143.657 -80.2421 140.212C-82.1453 146.992 -84.0912 153.76 -86.0799 160.516C-84.7709 157.194 -83.5179 153.865 -82.2484 150.54L-82.2615 150.54ZM-86.6917 172.274C-85.5625 166.87 -84.453 161.462 -83.3634 156.05C-85.2511 160.934 -87.1849 165.802 -89.1221 170.67C-90.7205 175.995 -92.3431 181.312 -93.9897 186.62C-91.5187 181.848 -89.0816 177.066 -86.6785 172.274L-86.6917 172.274ZM-91.2961 193.696C-89.9806 187.72 -88.6858 181.738 -87.412 175.751C-90.0737 181.024 -92.775 186.288 -95.5158 191.544C-97.3203 197.298 -99.1598 203.042 -101.034 208.777C-97.7477 203.756 -94.5005 198.726 -91.2928 193.686L-91.2961 193.696ZM-96.1636 215.055C-94.6946 208.787 -93.2584 202.51 -91.8551 196.224C-95.2207 201.497 -98.6324 206.758 -102.09 212.006C-104.063 218.018 -106.076 224.018 -108.128 230.007C-104.092 225.044 -100.103 220.056 -96.1604 215.045L-96.1636 215.055ZM-101.278 236.292C-99.6904 229.894 -98.1413 223.487 -96.6306 217.072C-100.678 222.206 -104.784 227.322 -108.947 232.419C-111.055 238.545 -113.203 244.66 -115.394 250.766C-110.634 245.954 -105.927 241.126 -101.274 236.282L-101.278 236.292ZM-106.675 257.384C-104.971 250.924 -103.309 244.452 -101.689 237.966C-106.425 242.896 -111.223 247.804 -116.084 252.691C-118.307 258.867 -120.576 265.032 -122.889 271.186C-117.419 266.611 -112.013 262.013 -106.672 257.39L-106.675 257.384ZM-112.417 278.525C-110.595 272.004 -108.818 265.465 -107.086 258.906C-112.488 263.584 -117.963 268.233 -123.51 272.853C-125.859 279.086 -128.254 285.303 -130.697 291.503C-124.529 287.21 -118.435 282.886 -112.414 278.532L-112.417 278.525ZM-118.452 299.498C-116.518 292.973 -114.635 286.431 -112.802 279.873C-118.875 284.267 -125.029 288.626 -131.262 292.95C-133.718 299.176 -136.224 305.384 -138.781 311.573C-131.925 307.583 -125.147 303.561 -118.449 299.505L-118.452 299.498ZM-72.4937 108.175C-72.1495 104.642 -71.8118 101.106 -71.4807 97.5663C-72.6976 104.544 -73.9419 111.517 -75.2136 118.484C-74.2894 115.056 -73.3948 111.619 -72.4903 108.181L-72.4937 108.175ZM-74.7959 130.638C-74.2083 125.081 -73.636 119.524 -73.0791 113.965C-74.4253 119.019 -75.7913 124.056 -77.177 129.079C-78.1943 134.499 -79.2304 139.915 -80.285 145.326C-78.4279 140.44 -76.5938 135.546 -74.7828 130.644L-74.7959 130.638ZM-77.2756 153.091C-76.5608 146.888 -75.8714 140.682 -75.207 134.471C-77.2198 139.925 -79.2984 145.346 -81.3736 150.794C-82.573 156.86 -83.8019 162.92 -85.0604 168.976C-82.4206 163.696 -79.8213 158.403 -77.2626 153.097L-77.2756 153.091ZM-79.9527 175.455C-79.1349 168.916 -78.3467 162.372 -77.5881 155.823C-80.2915 161.399 -83.0322 166.962 -85.8102 172.512C-87.1258 178.826 -88.4808 185.133 -89.8752 191.432C-86.5074 186.126 -83.1956 180.802 -79.9396 175.461L-79.9527 175.455ZM-82.8568 197.736C-81.9425 191.04 -81.0655 184.339 -80.2257 177.633C-83.5782 183.097 -86.9821 188.545 -90.4376 193.976C-91.8694 200.436 -93.3363 206.887 -94.8382 213.331C-90.7754 208.153 -86.7772 202.957 -82.8437 197.743L-82.8568 197.736ZM-86.0306 220.011C-85.022 213.2 -84.0495 206.382 -83.1133 199.556C-87.1257 204.848 -91.1898 210.121 -95.3052 215.374C-96.84 221.913 -98.4121 228.44 -100.021 234.957C-95.2811 230.009 -90.613 225.03 -86.0174 220.018L-86.0306 220.011ZM-89.451 242.138C-88.3546 235.294 -87.2924 228.439 -86.2641 221.574C-90.9255 226.627 -95.6473 231.654 -100.429 236.654C-102.061 243.212 -103.73 249.76 -105.438 256.296C-100.031 251.603 -94.6979 246.886 -89.4379 242.145L-89.451 242.138ZM-93.1543 264.291C-91.9506 257.384 -90.7896 250.463 -89.6714 243.529C-94.9906 248.318 -100.382 253.082 -105.846 257.819C-107.6 264.443 -109.393 271.053 -111.223 277.648C-105.115 273.221 -99.0874 268.771 -93.1411 264.298L-93.1543 264.291ZM-97.1766 286.316C-95.861 279.408 -94.5927 272.487 -93.3714 265.553C-99.3681 270.075 -105.446 274.563 -111.605 279.016C-113.453 285.627 -115.348 292.218 -117.288 298.79C-110.491 294.668 -103.783 290.512 -97.1634 286.322L-97.1766 286.316ZM-66.8138 64.1126C-66.7788 60.6346 -66.7458 57.1577 -66.7151 53.682C-67.2742 60.5039 -67.8509 67.3247 -68.4451 74.1444C-67.8761 70.8059 -67.3433 67.4642 -66.8007 64.1192L-66.8138 64.1126ZM-67.1164 87.2939C-67.0243 81.6342 -66.9465 75.9757 -66.8829 70.3182C-67.7358 75.5165 -68.6029 80.7137 -69.4843 85.9098C-69.9908 91.5035 -70.5127 97.0951 -71.0498 102.684C-69.7058 97.5608 -68.3902 92.4329 -67.1032 87.3005L-67.1164 87.2939ZM-67.5636 110.591C-67.4189 104.16 -67.2929 97.731 -67.1854 91.3047C-68.6325 96.9863 -70.1015 102.665 -71.5925 108.34C-72.2042 114.568 -72.8346 120.794 -73.4836 127.016C-71.4774 121.552 -69.4843 116.081 -67.5505 110.597L-67.5636 110.591ZM-68.1556 133.841C-67.9604 127.083 -67.7851 120.321 -67.6295 113.557C-69.6784 119.331 -71.78 125.091 -73.8783 130.852C-74.5755 137.43 -75.299 144.005 -76.0488 150.576C-73.3761 145.013 -70.7407 139.437 -68.1425 133.848L-68.1556 133.841ZM-68.9219 157.036C-68.6632 150.069 -68.4297 143.095 -68.2214 136.115C-70.8963 141.858 -73.6141 147.589 -76.3745 153.308C-77.1507 160.058 -77.9553 166.802 -78.7885 173.54C-75.4448 168.056 -72.1515 162.557 -68.9087 157.042L-68.9219 157.036ZM-69.9085 180.283C-69.5687 173.173 -69.2628 166.058 -68.9909 158.937C-72.2951 164.542 -75.6466 170.131 -79.0451 175.705C-79.9024 182.549 -80.7904 189.388 -81.7091 196.22C-77.7186 190.932 -73.784 185.622 -69.9053 180.289L-69.9085 180.283ZM-71.1123 203.471C-70.7023 196.291 -70.3262 189.101 -69.9842 181.901C-73.9177 187.304 -77.9103 192.686 -81.9622 198.05C-82.9072 204.977 -83.8939 211.898 -84.9222 218.812C-80.2454 213.719 -75.641 208.608 -71.109 203.477L-71.1123 203.471ZM-72.5496 226.57C-72.0562 219.354 -71.6034 212.128 -71.1912 204.891C-75.7759 210.067 -80.4252 215.221 -85.1393 220.351C-86.172 227.298 -87.2421 234.232 -88.3493 241.153C-83.006 236.321 -77.7382 231.463 -72.5462 226.576L-72.5496 226.57ZM-74.2894 249.711C-73.6974 242.444 -73.1493 235.163 -72.645 227.871C-77.8787 232.791 -83.1901 237.682 -88.5794 242.547C-89.7042 249.536 -90.8707 256.515 -92.0788 263.484C-88.1739 260.531 -84.3018 257.565 -80.4626 254.586C-78.3742 252.977 -76.335 251.346 -74.286 249.718L-74.2894 249.711ZM-76.3186 272.781C-75.6301 265.497 -74.9866 258.2 -74.388 250.888C-76.2068 252.335 -78.0058 253.781 -79.8607 255.215C-83.9565 258.401 -88.0982 261.569 -92.286 264.72C-93.5095 271.7 -94.778 278.667 -96.0913 285.62C-89.4105 281.387 -82.8184 277.112 -76.3152 272.797L-76.3186 272.781ZM-64.8964 18.5639C-65.1157 15.1783 -65.3403 11.7925 -65.5705 8.40683C-65.5705 14.9981 -65.5892 21.6036 -65.6264 28.2234C-65.3809 25.0047 -65.1376 21.7848 -64.8964 18.5639ZM-63.3703 42.4143C-63.7321 36.6558 -64.0994 30.9016 -64.4721 25.1518C-64.8712 30.4248 -65.2779 35.7077 -65.6923 41.0005C-65.7252 46.6821 -65.769 52.3637 -65.8238 58.0454C-64.9928 52.8383 -64.1772 47.629 -63.3769 42.4175L-63.3703 42.4143ZM-61.9133 66.3371C-62.3014 59.7898 -62.6995 53.2415 -63.1073 46.692C-64.015 52.5252 -64.9391 58.3573 -65.8797 64.1883C-65.9476 70.6082 -66.0289 77.0259 -66.1231 83.4414C-64.6958 77.7444 -63.2924 72.0473 -61.9133 66.3503L-61.9133 66.3371ZM-60.5452 90.349C-60.9223 83.382 -61.3171 76.4151 -61.7293 69.4482C-63.1895 75.4395 -64.6738 81.4265 -66.1822 87.4092C-66.2897 94.1894 -66.4169 100.969 -66.5638 107.746C-64.5313 101.955 -62.5251 96.1569 -60.5452 90.3523L-60.5452 90.349ZM-59.3119 114.407C-59.6627 107.205 -60.03 99.9984 -60.4137 92.7877C-62.4572 98.7857 -64.5292 104.774 -66.6296 110.752C-66.7875 117.754 -66.9662 124.752 -67.1657 131.745C-64.5017 125.987 -61.8838 120.21 -59.3119 114.417L-59.3119 114.407ZM-58.2133 138.524C-58.5268 131.173 -58.8557 123.813 -59.2 116.444C-61.8311 122.316 -64.5039 128.177 -67.2184 134.026C-67.4376 141.144 -67.6699 148.259 -67.9155 155.371C-64.6419 149.767 -61.4079 144.151 -58.2133 138.524ZM-57.2893 162.599C-57.5458 155.14 -57.8297 147.675 -58.141 140.205C-61.3707 145.917 -64.6596 151.605 -68.0076 157.27C-68.2773 164.504 -68.5832 171.73 -68.9252 178.945C-64.9852 173.509 -61.1065 168.055 -57.2893 162.582L-57.2893 162.599ZM-56.582 186.722C-56.7728 179.191 -56.992 171.653 -57.2398 164.108C-61.0922 169.616 -65.0092 175.102 -68.9909 180.566C-69.333 187.847 -69.7101 195.117 -70.1223 202.377C-65.5442 197.176 -61.0308 191.955 -56.582 186.713L-56.582 186.722ZM-56.0855 210.734C-56.2017 203.185 -56.3563 195.624 -56.5493 188.051C-61.0221 193.324 -65.5903 198.57 -70.2013 203.797C-70.6223 211.094 -71.0762 218.381 -71.5629 225.66C-66.3249 220.706 -61.1657 215.727 -56.0855 210.724L-56.0855 210.734ZM-55.842 234.835C-55.8749 227.224 -55.9473 219.599 -56.0591 211.96C-61.1766 216.991 -66.373 221.991 -71.6483 226.959C-72.1483 234.297 -72.6964 241.625 -73.2928 248.944C-67.4013 244.264 -61.5844 239.558 -55.842 234.825L-55.842 234.835ZM-55.8915 258.893C-55.8301 251.26 -55.8135 243.613 -55.842 235.952C-61.6019 240.715 -67.4529 245.439 -73.3947 250.123C-73.9912 257.477 -74.6347 264.815 -75.3253 272.138C-68.752 267.755 -62.2741 263.339 -55.8915 258.89L-55.8915 258.893ZM-60.088 20.6995C-60.9497 14.0489 -61.8169 7.405 -62.6896 0.767608C-63.1106 6.69974 -63.5403 12.6374 -63.9788 18.5804C-63.5403 25.1123 -63.1193 31.6475 -62.7159 38.186C-61.8235 32.3549 -60.9475 26.5261 -60.088 20.6995ZM-56.9109 45.2979C-57.8187 38.2036 -58.7331 31.1114 -59.654 24.0215C-60.5705 30.1733 -61.5023 36.3251 -62.4495 42.4769C-62.011 49.424 -61.5867 56.3745 -61.1767 63.3282C-59.7296 57.317 -58.3076 51.307 -56.9109 45.2979ZM-53.7965 69.992C-54.7152 62.623 -55.6426 55.2561 -56.5788 47.8916C-58.026 54.0741 -59.4971 60.2523 -60.9925 66.4261C-60.554 73.6237 -60.1418 80.8224 -59.7559 88.0222C-57.73 82.022 -55.7435 76.0064 -53.7965 69.9754L-53.7965 69.992ZM-50.7608 94.8276C-51.6686 87.2609 -52.5916 79.6942 -53.53 72.1275C-55.533 78.2541 -57.5458 84.3806 -59.621 90.4906C-59.2198 97.8464 -58.8405 105.197 -58.4831 112.542C-55.8652 106.649 -53.2911 100.744 -50.7608 94.8276ZM-47.8338 119.696C-48.7108 112.007 -49.6141 104.317 -50.5437 96.6271C-53.1156 102.618 -55.7291 108.599 -58.3844 114.568C-58.0204 122.049 -57.6795 129.526 -57.3616 136.998C-54.1363 131.251 -50.9604 125.483 -47.8338 119.696ZM-45.0546 144.618C-45.8922 136.834 -46.7583 129.046 -47.6528 121.255C-50.8167 127.088 -54.0289 132.903 -57.2893 138.699C-56.9736 146.241 -56.6819 153.778 -56.4144 161.31C-52.562 155.771 -48.7754 150.207 -45.0546 144.618ZM-42.4433 169.585C-43.2348 161.733 -44.0559 153.874 -44.9066 146.008C-48.6668 151.631 -52.4864 157.233 -56.3651 162.816C-56.1086 170.429 -55.8827 178.035 -55.6876 185.635C-51.195 180.314 -46.7802 174.964 -42.4433 169.585ZM-40.0259 194.55C-40.7539 186.658 -41.5213 178.757 -42.3282 170.848C-46.7133 176.248 -51.1587 181.631 -55.6644 186.996C-55.4737 194.626 -55.3148 202.246 -55.1877 209.854C-50.0526 204.777 -44.9987 199.675 -40.0259 194.55ZM-37.8521 219.616C-38.5098 211.665 -39.1994 203.7 -39.9208 195.723C-44.9132 200.871 -49.9922 205.987 -55.1579 211.074C-55.0395 218.763 -54.9607 226.43 -54.9212 234.074C-49.146 229.282 -43.4333 224.47 -37.8521 219.596L-37.8521 219.616ZM-35.928 244.58C-36.4981 236.631 -37.1098 228.67 -37.7632 220.697C-43.3741 225.574 -49.1197 230.399 -54.9212 235.198C-54.8883 242.887 -54.9026 250.567 -54.9639 258.237C-48.5134 253.722 -42.1681 249.168 -35.928 244.574L-35.928 244.58ZM-52.0928 24.206C-53.5245 16.7052 -54.9595 9.21316 -56.3978 1.72995C-57.3034 8.06192 -58.2244 14.3906 -59.1606 20.716C-58.2047 28.0586 -57.2562 35.4066 -56.3156 42.7603C-54.8839 36.5733 -53.4763 30.3864 -52.0928 24.1994L-52.0928 24.206ZM-47.2615 49.5427C-48.7195 41.8398 -50.1831 34.1422 -51.6521 26.4503C-53.0663 32.7515 -54.5047 39.0495 -55.9672 45.3441C-55.0068 52.8778 -54.054 60.4127 -53.109 67.9487C-51.1324 61.8288 -49.1986 55.689 -47.2615 49.5427ZM-42.4663 75.1167C-43.9309 67.227 -45.4087 59.3405 -46.8996 51.4574C-48.8532 57.6729 -50.8343 63.883 -52.8427 70.0876C-51.889 77.7773 -50.9493 85.4671 -50.0241 93.1568C-47.4741 87.15 -44.9592 81.1377 -42.4794 75.12L-42.4663 75.1167ZM-37.7633 100.724C-39.2125 92.735 -40.6783 84.7442 -42.1605 76.7512C-44.6666 82.8283 -47.2165 88.8911 -49.8103 94.9397C-48.8719 102.724 -47.9555 110.505 -47.0609 118.283C-43.9189 112.443 -40.8241 106.591 -37.7764 100.727L-37.7633 100.724ZM-33.1588 126.429C-34.5818 118.342 -36.0288 110.252 -37.5 102.16C-40.5697 108.066 -43.6953 113.957 -46.8767 119.831C-45.9733 127.695 -45.0963 135.555 -44.2456 143.412C-40.4985 137.778 -36.8083 132.122 -33.1752 126.442L-33.1588 126.429ZM-28.6925 152.208C-30.0782 144.05 -31.4902 135.89 -32.9285 127.728C-36.5792 133.44 -40.3012 139.132 -44.0943 144.802C-43.237 152.725 -42.4082 160.643 -41.6079 168.557C-37.2425 163.141 -32.9428 157.696 -28.7089 152.221L-28.6925 152.208ZM-24.417 178.029C-25.7457 169.823 -27.1062 161.61 -28.4985 153.391C-32.7478 158.883 -37.0769 164.356 -41.4862 169.809C-40.6837 177.767 -39.9163 185.72 -39.184 193.666C-34.1827 188.492 -29.2636 183.284 -24.4268 178.042L-24.417 178.029ZM-20.3191 203.893C-21.5864 195.658 -22.8909 187.411 -24.2328 179.152C-29.0872 184.425 -34.0315 189.654 -39.0656 194.84C-38.3289 202.848 -37.6339 210.846 -36.9805 218.835C-31.3368 213.9 -25.7862 208.924 -20.3289 203.906L-20.3191 203.893ZM-16.4744 229.839C-17.6584 221.552 -18.8861 213.251 -20.1578 204.937C-25.6393 209.969 -31.2173 214.965 -36.8917 219.926C-36.234 227.934 -35.6178 235.931 -35.0433 243.918C-28.7506 239.278 -22.5642 234.589 -16.4842 229.852L-16.4744 229.839ZM-40.9633 28.9879C-42.9366 20.9994 -44.9242 13.0163 -46.926 5.03873C-48.3117 11.43 -49.7183 17.8181 -51.1456 24.2027C-49.6481 32.0221 -48.1605 39.8492 -46.6827 47.684C-44.7445 41.4685 -42.8412 35.2408 -40.9731 29.0011L-40.9633 28.9879ZM-34.4776 55.2144C-36.4882 47.0523 -38.5053 38.8946 -40.5291 30.7412C-42.4256 37.0292 -44.3552 43.315 -46.3175 49.5987C-44.8112 57.5785 -43.3138 65.5616 -41.825 73.5479C-39.9175 68.8813 -38.0318 64.2071 -36.1681 59.5251C-35.6057 58.1113 -35.0466 56.6645 -34.4876 55.2276L-34.4776 55.2144ZM-28.0282 81.5332C-30.041 73.2678 -32.0647 65.0046 -34.0994 56.7436C-34.4985 57.7696 -34.8986 58.7934 -35.2998 59.815C-37.3433 64.9474 -39.4174 70.0733 -41.5223 75.1924C-40.0226 83.2579 -38.5404 91.3233 -37.0758 99.3888C-36.7107 98.6835 -36.3325 97.9816 -35.9707 97.2763C-33.2848 92.0517 -30.6405 86.8084 -28.038 81.5464L-28.0282 81.5332ZM-21.6676 107.957C-23.6606 99.6085 -25.6712 91.2596 -27.6993 82.9107C-30.1396 87.83 -32.6205 92.7393 -35.142 97.6388C-35.6912 98.7099 -36.2602 99.771 -36.8127 100.839C-35.3327 108.994 -33.8725 117.149 -32.432 125.302C-29.5816 120.816 -26.7663 116.312 -23.9861 111.79C-23.21 110.531 -22.4469 109.249 -21.6774 107.971L-21.6676 107.957ZM-15.399 134.5C-17.3723 126.074 -19.363 117.643 -21.3714 109.206C-21.97 110.195 -22.5686 111.207 -23.1837 112.202C-26.1415 117.016 -29.1475 121.813 -32.2017 126.594C-30.7546 134.807 -29.3294 143.016 -27.9262 151.222C-24.5321 146.808 -21.184 142.378 -17.882 137.931C-17.0598 136.807 -16.2343 135.66 -15.4088 134.513L-15.399 134.5ZM-9.26188 161.162C-11.1892 152.663 -13.1449 144.157 -15.1292 135.644C-15.7869 136.567 -16.4447 137.486 -17.1288 138.399C-20.604 143.09 -24.1386 147.761 -27.7322 152.412C-26.3312 160.675 -24.9618 168.932 -23.6243 177.182C-18.7568 171.882 -13.9727 166.547 -9.27183 161.175L-9.26188 161.162ZM-3.31235 187.856C-5.18046 179.334 -7.08253 170.802 -9.01859 162.262C-13.7282 167.652 -18.5343 173.004 -23.4369 178.319C-22.0951 186.608 -20.7849 194.887 -19.5067 203.154C-14.0143 198.092 -8.61942 192.993 -3.32215 187.856L-3.31235 187.856ZM2.43994 214.653C0.635463 206.067 -1.21183 197.466 -3.10184 188.851C-8.41007 194.004 -13.8269 199.115 -19.3522 204.186C-18.0695 212.535 -16.834 220.868 -15.6456 229.186C-9.50638 224.397 -3.47782 219.552 2.43994 214.653ZM-26.7653 35.1837C-29.3043 26.7777 -31.8476 18.3783 -34.3954 9.98544C-36.2393 16.3394 -38.1152 22.6856 -40.0228 29.0242C-37.9793 37.2588 -35.9412 45.4978 -33.9086 53.7413C-31.488 47.5697 -29.107 41.3882 -26.7653 35.1969L-26.7653 35.1837ZM-18.6483 62.1385C-21.2005 53.6292 -23.7626 45.1244 -26.3344 36.6239C-28.6893 42.8548 -31.0889 49.0747 -33.5336 55.2836C-31.4814 63.6083 -29.4412 71.9352 -27.4131 80.2643C-24.4422 74.2356 -21.5206 68.1936 -18.6483 62.1385ZM-10.5676 89.2482C-13.1198 80.6422 -15.6851 72.0352 -18.2635 63.427C-21.149 69.5107 -24.087 75.5791 -27.0777 81.632C-25.0364 90.0402 -23.0116 98.4473 -21.0032 106.853C-17.46 101.007 -13.9815 95.1385 -10.5676 89.2482ZM-2.53288 116.506C-5.06529 107.817 -7.62077 99.1262 -10.1992 90.4346C-13.6284 96.3469 -17.1268 102.236 -20.6941 108.102C-18.6703 116.581 -16.6662 125.059 -14.6819 133.538C-10.5664 127.885 -6.5168 122.208 -2.53288 116.506ZM5.38994 143.86C2.87944 135.109 0.345966 126.353 -2.21058 117.594C-6.1923 123.317 -10.2596 129.011 -14.4123 134.675C-12.4192 143.219 -10.4535 151.759 -8.5153 160.295C-3.79249 154.859 0.832723 149.383 5.3604 143.866L5.38994 143.86ZM13.1747 171.404C10.7146 162.592 8.22054 153.769 5.69249 144.934C1.13195 150.462 -3.52067 155.955 -8.26542 161.412C-6.32279 169.981 -4.41291 178.549 -2.53608 187.118C2.78201 181.914 8.05077 176.694 13.1617 171.411L13.1747 171.404ZM20.7819 198.952C18.3701 190.111 15.9265 181.256 13.451 172.387C8.32043 177.676 3.03845 182.906 -2.31254 188.11C-0.424719 196.751 1.43136 205.382 3.25558 214.004C6.05111 211.679 8.82244 209.345 11.5698 207C14.6744 204.341 17.7299 201.655 20.7688 198.959L20.7819 198.952ZM-9.5678 42.5527C-12.6374 33.8259 -15.7201 25.1046 -18.816 16.3888C-21.0875 22.6768 -23.4117 28.9539 -25.7884 35.2199C-23.2034 43.7754 -20.6261 52.3351 -18.0564 60.8993C-15.1918 54.8156 -12.3469 48.6924 -9.58098 42.5593L-9.5678 42.5527ZM0.167281 70.2654C-2.92208 61.4332 -6.02349 52.6032 -9.13695 43.7754C-11.9193 49.9271 -14.7631 56.0647 -17.6683 62.188C-15.0722 70.8488 -12.4894 79.5052 -9.91966 88.1573C-6.50142 82.2186 -3.14354 76.2569 0.154097 70.272L0.167281 70.2654ZM9.87938 98.1661C6.79881 89.2482 3.69621 80.3324 0.571791 71.4189C-2.71706 77.4202 -6.12764 83.3919 -9.56779 89.3438C-6.97838 98.0815 -4.40867 106.814 -1.85872 115.541C2.1252 109.771 6.03359 103.982 9.86623 98.1727L9.87938 98.1661ZM19.5189 126.179C16.4493 117.206 13.3601 108.228 10.251 99.2438C6.41179 105.081 2.48155 110.882 -1.53962 116.645C1.02568 125.433 3.56914 134.221 6.0906 143.009C10.6599 137.429 15.1305 131.818 19.5025 126.175L19.5189 126.179ZM29.0566 154.412C26.0177 145.356 22.9481 136.293 19.8478 127.223C15.4626 132.879 10.9679 138.497 6.36345 144.077C8.90246 152.94 11.4065 161.796 13.8753 170.643C19.075 165.278 24.107 159.86 29.0402 154.409L29.0566 154.412ZM38.476 182.755C35.4831 173.641 32.4519 164.517 29.3823 155.381C24.4161 160.842 19.371 166.257 14.1779 171.638C16.6599 180.53 19.1123 189.414 21.5351 198.29C27.306 193.16 32.9529 187.981 38.476 182.755ZM10.4516 50.9861C6.84477 41.9561 3.227 32.9339 -0.401693 23.9193C-3.08541 30.1568 -5.82613 36.3811 -8.62386 42.5922C-5.49944 51.4574 -2.38484 60.3238 0.719862 69.1911C4.04381 63.1448 7.28767 57.0764 10.4516 50.9861ZM21.7883 79.4602C18.175 70.3336 14.5429 61.2102 10.8922 52.0902C7.7108 58.198 4.46031 64.2818 1.14076 70.3413C4.27833 79.2988 7.39616 88.253 10.4943 97.2038C14.3444 91.3222 18.1092 85.4077 21.7883 79.4602ZM33.0855 108.079C29.4765 98.8846 25.8479 89.6898 22.1995 80.495C18.5072 86.4491 14.7294 92.3758 10.866 98.2749C13.9839 107.283 17.0841 116.291 20.1669 125.299C24.5762 119.602 28.8823 113.862 33.0855 108.079ZM44.3499 136.975C40.754 127.69 37.1363 118.4 33.4966 109.104C29.2759 114.891 24.9555 120.641 20.5353 126.353C23.64 135.452 26.7162 144.545 29.7639 153.635C34.7366 148.126 39.5985 142.573 44.3499 136.975ZM55.532 166.013C51.9669 156.66 48.3679 147.297 44.7348 137.924C39.9791 143.533 35.0984 149.093 30.0927 154.603C33.1624 163.761 36.2046 172.913 39.2194 182.059C44.771 176.753 50.227 171.421 55.5188 166.013L55.532 166.013ZM20.3642 31.4629C16.2575 22.2528 12.1475 13.0449 8.03422 3.83914C5.45573 10.1557 2.82465 16.4547 0.14094 22.7361C3.77403 31.7925 7.40397 40.8543 11.0305 49.9217C14.1845 43.7918 17.322 37.6422 20.3511 31.4629L20.3642 31.4629ZM33.2368 60.4182C29.1125 51.1179 24.9762 41.8189 20.8279 32.5208C17.7824 38.7166 14.6382 44.8761 11.448 51.0191C15.1052 60.1743 18.7516 69.3317 22.3869 78.4914C26.0803 72.5065 29.7177 66.4887 33.2368 60.4182ZM46.1028 89.5514C41.9786 80.1786 37.8401 70.8082 33.6874 61.4398C30.1584 67.5037 26.5078 73.5248 22.798 79.5261C26.4552 88.7538 30.0949 97.9815 33.7171 107.209C37.9531 101.363 42.0817 95.4801 46.1028 89.5612L46.1028 89.5514ZM59.0116 119.031C54.8786 109.544 50.7227 100.052 46.5437 90.5565C42.5115 96.4886 38.3708 102.376 34.1216 108.218C37.7788 117.544 41.4118 126.866 45.0208 136.184C49.8072 130.518 54.4708 124.803 59.0116 119.04L59.0116 119.031ZM71.8382 148.632C67.7337 139.088 63.6008 129.537 59.4393 119.98C54.9007 125.75 50.2007 131.462 45.4056 137.117C49.0387 146.509 52.6478 155.897 56.2327 165.281C61.5782 159.802 66.7755 154.255 71.8251 148.642L71.8382 148.632ZM48.4446 210.619C54.6276 205.546 60.6572 200.409 66.5333 195.209C63.0142 185.785 59.4589 176.352 55.8675 166.909C50.5658 172.324 45.0964 177.673 39.5185 182.972C42.5377 192.206 45.5131 201.422 48.4446 210.619ZM28.9251 226.042C35.3252 221.165 41.5741 216.229 47.6716 211.235C44.738 202.065 41.766 192.881 38.7556 183.684C33.2281 188.924 27.5646 194.107 21.7653 199.233C24.2034 208.183 26.5934 217.12 28.9351 226.042L28.9251 226.042ZM8.7381 240.892C15.3421 236.199 21.8102 231.449 28.1424 226.642C25.8073 217.744 23.4327 208.831 21.0187 199.902C18.1014 202.485 15.1745 205.066 12.1816 207.62C9.30056 210.085 6.3854 212.536 3.4364 214.972C5.25406 223.627 7.02453 232.267 8.74789 240.892L8.7381 240.892ZM-12.0574 255.199C-5.26041 250.677 1.39837 246.103 7.9191 241.476C6.1979 232.874 4.43402 224.259 2.62735 215.632C-3.29261 220.531 -9.33979 225.384 -15.5141 230.192C-14.3148 238.543 -13.1592 246.875 -12.0476 255.189L-12.0574 255.199ZM-33.435 268.997C-26.4802 264.636 -19.6416 260.229 -12.9191 255.775C-14.0154 247.479 -15.1631 239.169 -16.3625 230.844C-22.4644 235.59 -28.6761 240.293 -34.9973 244.953C-34.403 252.983 -33.8757 260.998 -33.4153 268.997L-33.435 268.997ZM-55.3126 282.305C-48.2064 278.1 -41.211 273.847 -34.3263 269.548C-34.7977 261.579 -35.3141 253.596 -35.8753 245.598C-42.1374 250.212 -48.51 254.78 -54.9935 259.302C-55.0395 266.987 -55.1393 274.655 -55.2928 282.305L-55.3126 282.305ZM-77.6769 295.181C-70.4282 291.119 -63.2859 287.01 -56.2499 282.855C-56.0899 275.238 -55.9803 267.603 -55.9211 259.951C-62.3344 264.422 -68.8452 268.853 -75.4537 273.245C-76.1334 280.575 -76.8656 287.887 -77.6505 295.181L-77.6769 295.181ZM-100.482 307.655C-93.1082 303.72 -85.8366 299.747 -78.6669 295.735C-77.871 288.484 -77.131 281.209 -76.4469 273.908C-82.9852 278.245 -89.6177 282.545 -96.3445 286.807C-97.6601 293.776 -99.0305 300.725 -100.456 307.655L-100.482 307.655ZM-123.668 319.74C-116.214 315.937 -108.838 312.097 -101.541 308.222C-100.12 301.327 -98.7454 294.415 -97.4167 287.486C-104.078 291.698 -110.827 295.872 -117.666 300.009C-119.602 306.6 -121.594 313.177 -123.642 319.74L-123.668 319.74ZM74.328 188.159C77.801 184.963 81.2116 181.742 84.5596 178.497C80.477 168.854 76.3616 159.202 72.2132 149.541C67.1374 155.157 61.9202 160.714 56.5615 166.211C60.1661 175.676 63.7291 185.123 67.2504 194.553C69.6337 192.435 71.9929 190.304 74.328 188.159ZM44.1329 40.9741C39.5285 31.5266 34.9175 22.0792 30.2999 12.6318C27.3827 18.9363 24.4161 25.2276 21.3475 31.486C25.5134 40.806 29.6607 50.1304 33.7893 59.4592C37.3347 53.3272 40.7826 47.1654 44.1329 40.9741ZM58.5217 70.6049C53.9019 61.0542 49.2667 51.508 44.6163 41.966C41.2441 48.1728 37.7864 54.3432 34.2432 60.4775C38.4091 69.8809 42.5619 79.2844 46.7015 88.6879C50.7512 82.6943 54.6913 76.6644 58.5217 70.5983L58.5217 70.6049ZM72.9564 100.496C68.3257 90.862 63.6742 81.2266 59.0018 71.5903C55.167 77.6674 51.2138 83.7017 47.1422 89.6931C51.3322 99.2042 55.4981 108.715 59.6399 118.226C64.2224 112.365 68.6611 106.452 72.9564 100.49L72.9564 100.496ZM87.3847 130.694C82.754 120.945 78.0937 111.191 73.4038 101.432C69.0779 107.395 64.6279 113.309 60.0542 119.176C64.2201 128.759 68.3652 138.335 72.4894 147.903C77.597 142.219 82.5928 136.494 87.3847 130.687L87.3847 130.694ZM101.721 161.013C97.1166 151.212 92.4782 141.401 87.8058 131.58C82.9974 137.39 77.995 143.115 72.8776 148.81C77.0435 158.488 81.1688 168.155 85.2535 177.811C90.9192 172.285 96.4094 166.684 101.724 161.007L101.721 161.013ZM194.385 0.00629437C179.236 60.1347 147.532 113.339 102.793 161.162C250.289 475.359 360.19 778.799 214.286 961.006L213.115 961.006C359.289 779.227 249.559 475.965 102.139 161.87C96.8084 167.552 91.3073 173.161 85.6351 178.698C216.594 488.274 306.588 785.624 139.441 961.006L138.211 961.006C305.667 786.052 215.828 488.861 84.9312 179.367C81.6752 182.522 78.3612 185.652 74.989 188.759C72.553 191.005 70.0854 193.236 67.5858 195.453C181.548 500.784 250.957 792.344 61.5015 961.023L60.1596 961.023C249.993 792.779 180.759 501.371 66.8622 196.095C60.9861 201.298 54.9489 206.437 48.7505 211.512C145.114 512.886 193.26 798.948 -19.5297 961L-21.0097 961C192.26 799.403 144.302 513.456 47.9874 212.128C41.8701 217.131 35.6016 222.074 29.1817 226.959C107.213 524.684 133.067 805.454 -104.274 961.003L-105.836 961.003C132.034 805.922 106.362 525.261 28.3825 227.552C22.0394 232.366 15.557 237.123 8.93545 241.825C63.9023 517.051 69.5788 775.948 -145 930.387L-145 929.296C68.4738 775.134 62.9156 516.946 8.11645 242.408C1.56943 247.042 -5.10797 251.625 -11.9159 256.158C19.0553 490.433 10.5239 711.42 -145 863.354L-145 862.095C9.49452 710.497 18.0423 490.248 -12.7679 256.725C-19.5056 261.191 -26.3684 265.608 -33.3562 269.976C-22.174 460.555 -39.8484 641.299 -145 781.567L-145 780.051C-40.7725 640.228 -23.1705 460.278 -34.2507 270.53C-41.1551 274.836 -48.1714 279.097 -55.2994 283.313C-58.4107 427.615 -79.8081 565.612 -144.987 683.849L-144.987 681.941C-80.627 564.317 -59.3875 427.22 -56.2433 283.861C-63.3078 288.035 -70.4797 292.158 -77.7591 296.229C-88.4183 393.486 -108.263 487.543 -145 574.286L-145 571.92C-108.928 486.017 -89.3327 392.968 -78.7491 296.779C-85.9583 300.811 -93.2694 304.8 -100.683 308.746C-111.865 362.912 -126.221 415.968 -145 467.222L-145 464.559C-126.744 414.317 -112.726 362.349 -101.741 309.316C-109.067 313.207 -116.487 317.062 -124.001 320.88C-130.471 341.495 -137.471 361.916 -145 382.142L-145 379.506C-137.892 360.345 -131.274 341.004 -125.148 321.483C-131.695 324.803 -138.313 328.099 -145 331.37L-145 330.418C-138.192 327.091 -131.456 323.735 -124.793 320.35C-122.748 313.831 -120.754 307.298 -118.814 300.751C-125.558 304.833 -132.388 308.883 -139.304 312.902C-141.176 317.427 -143.075 321.944 -145 326.45L-145 324.123C-143.516 320.636 -142.049 317.146 -140.599 313.653L-145 316.194L-145 315.205C-143.351 314.256 -141.707 313.306 -140.067 312.354C-137.539 306.231 -135.052 300.09 -132.608 293.932C-136.705 296.773 -140.835 299.602 -144.997 302.418L-144.997 301.327C-140.642 298.379 -136.325 295.413 -132.045 292.429C-129.633 286.308 -127.261 280.175 -124.928 274.03C-130.409 278.584 -135.95 283.112 -141.55 287.614C-142.692 289.877 -143.841 292.138 -144.997 294.397L-144.997 292.429C-144.422 291.304 -143.849 290.178 -143.277 289.051L-144.997 290.425L-144.997 289.295C-144.104 288.583 -143.215 287.87 -142.329 287.156C-139.514 281.587 -136.736 276.006 -133.995 270.414C-137.626 273.93 -141.293 277.425 -144.997 280.901L-144.997 279.715C-140.921 275.859 -136.887 271.991 -132.897 268.111C-130.294 262.739 -127.724 257.356 -125.185 251.962C-129.162 256.638 -133.184 261.298 -137.251 265.942C-139.804 270.18 -142.385 274.41 -144.997 278.63L-144.997 276.94C-143.504 274.523 -142.02 272.1 -140.547 269.67C-142.025 271.346 -143.508 273.019 -144.997 274.689L-144.997 273.371C-142.657 270.747 -140.333 268.111 -138.024 265.461C-136.077 262.235 -134.133 259.005 -132.219 255.765C-136.416 261.599 -140.675 267.408 -144.997 273.193L-144.997 271.729C-138.919 263.548 -132.96 255.325 -127.122 247.062C-120.016 234.842 -113.123 222.551 -106.445 210.19C-100.755 196.966 -95.2613 183.681 -89.964 170.333C-85.8354 156.553 -81.867 142.736 -78.0585 128.881C-75.3659 114.543 -72.8061 100.174 -70.3789 85.7746C-69.0305 70.8521 -67.7742 55.9219 -66.6099 40.984C-66.5244 27.3072 -66.4794 13.6424 -66.475 -0.0101623L-65.2055 -0.0101624C-64.9402 3.97751 -64.676 7.96854 -64.4129 11.9628C-64.1234 7.97293 -63.8362 3.9819 -63.5511 -0.0101626L-61.8608 -0.0101627C-61.1022 5.77914 -60.3446 11.5739 -59.5881 17.3742C-58.7352 11.5761 -57.8966 5.78134 -57.0722 -0.0101631L-55.8125 -0.0101633C-54.4093 7.30167 -53.0061 14.6213 -51.6028 21.9485C-50.1952 15.6473 -48.8127 9.34274 -47.4555 3.035L-48.2152 -0.0101639L-47.2615 -0.010164L-47.0016 1.02139L-46.7779 -0.010164L-45.8473 -0.0101641L-46.5051 3.02847C-44.4901 11.1071 -42.4762 19.1912 -40.4634 27.2808C-38.5756 20.9818 -36.7185 14.6773 -34.8921 8.36734L-37.4376 -0.0101649L-36.4872 -0.0101649L-34.4283 6.759C-33.7705 4.50265 -33.1237 2.24624 -32.4879 -0.0101653L-31.5276 -0.0101654C-32.3257 2.78451 -33.1293 5.57925 -33.9383 8.37393C-31.3664 16.8415 -28.801 25.3133 -26.2423 33.7896C-23.894 27.5456 -21.5852 21.2916 -19.3159 15.0277L-24.6407 -0.010166L-23.677 -0.0101661C-22.0611 4.54654 -20.4463 9.10659 -18.8325 13.6699C-17.1925 9.11538 -15.5777 4.55532 -13.988 -0.0101669L-13.0211 -0.010167C-14.7752 5.01016 -16.5511 10.0239 -18.349 15.031C-15.2421 23.8018 -12.1407 32.5768 -9.04476 41.3563C-6.26018 35.165 -3.53606 28.9539 -0.872061 22.723C-3.91537 15.1387 -6.96078 7.5588 -10.0085 -0.016698L-9.02181 -0.0166981C-6.13418 7.16116 -3.24764 14.3444 -0.362204 21.5333C2.31715 15.265 4.94163 8.98141 7.51133 2.6824L6.30433 -0.0166994L7.29099 -0.0166995L7.9817 1.52566L8.60654 -0.0166996L9.59321 -0.0166997L8.50459 2.66921C12.631 11.8969 16.7541 21.1334 20.8739 30.3787C23.926 24.1302 26.8992 17.8554 29.7934 11.5542L24.1365 -0.016701L25.1231 -0.0167011L30.2638 10.4963C31.8731 6.99856 33.4572 3.49422 35.0161 -0.016702L36.0027 -0.016702C34.286 3.85018 32.5417 7.70486 30.7701 11.5476C35.4008 21.0147 40.0262 30.4907 44.646 39.9755C51.7653 26.7931 58.4526 13.4624 64.708 -0.0167045L65.6947 -0.0167046C59.2946 13.8073 52.4372 27.4697 45.1228 40.9708C49.7842 50.5412 54.4336 60.1139 59.0709 69.6887C73.1437 47.3117 85.7226 24.0257 96.725 -0.0167073L97.7743 -0.0167074C86.6256 24.3782 73.8557 47.9959 59.5511 70.6774C64.23 80.3291 68.8914 89.9842 73.5353 99.6425C96.3305 68.0047 115.281 34.8541 129.864 -0.0167102L130.88 -0.0167103C116.179 35.1936 97.0408 68.6507 73.9826 100.575C78.6791 110.357 83.3503 120.134 87.9964 129.906C120.931 89.8612 146.311 46.7678 162.654 -0.0167131L163.67 -0.0167132C147.245 47.1105 121.651 90.4939 88.424 130.803C93.1008 140.637 97.748 150.464 102.366 160.285C146.798 112.7 178.302 59.769 193.385 -0.0167158L194.385 0.00629437Z" fill="#FDDEBB"/>
</g>
<defs>
<clipPath id="clip0_2202_5126">
<rect width="428" height="961" fill="white" transform="translate(283 961) rotate(180)"/>
</clipPath>
</defs>
</svg>
